<svg xmlns="http://www.w3.org/2000/svg" xmlns:xlink="http://www.w3.org/1999/xlink" viewBox="0 0 600 600"><defs/><defs><linearGradient id="b" x1="14.3093866%" x2="78.7087892%" y1="-2.35951203%" y2="100%"><stop offset="0%" stop-color="#8348FF"/><stop offset="100%" stop-color="#4E03FF"/></linearGradient><linearGradient id="c" x1="14.0739594%" x2="82.3806369%" y1="8.26602334%" y2="89.6134377%"><stop offset="0%" stop-color="#8348FF"/><stop offset="100%" stop-color="#4E03FF"/></linearGradient><linearGradient id="f" x1="8.38499985%" x2="89.7423802%" y1="27.6521896%" y2="75.2516809%"><stop offset="0%" stop-color="#D5C0FF"/><stop offset="100%" stop-color="#9D74FF"/></linearGradient><radialGradient id="a" cx="49.9756057%" cy="49.9731768%" r="49.9339394%" fx="49.9756057%" fy="49.9731768%"><stop offset="0%" stop-color="#0101FF"/><stop offset="100%" stop-color="navy"/></radialGradient><filter id="e" width="110%" height="114.6%" x="-5%" y="-7.3%" filterUnits="objectBoundingBox"><feOffset dy="2" in="SourceAlpha" result="shadowOffsetOuter1"/><feGaussianBlur in="shadowOffsetOuter1" result="shadowBlurOuter1" stdDeviation="10"/><feColorMatrix in="shadowBlurOuter1" result="shadowMatrixOuter1" values="0 0 0 0 1 0 0 0 0 1 0 0 0 0 1 0 0 0 0.5 0"/><feMerge><feMergeNode in="shadowMatrixOuter1"/><feMergeNode in="SourceGraphic"/></feMerge></filter><path id="d" d="M191.445429 32.5062857l8.360571-1.8994286 3.915429-2.0305714 4.996285-1.1665714-.694285-.9291429-3.036-.1157143.462857-.7671428 4.631143-.684 2.082857.462.833143-.9282857L220.95 22.5428571l1.177714-1.3182857 6.590572 1.9088572 5.178857-.6428572L239.181429 21.09l6.924.8674286-1.794858.6694285 3.011143.4962858 1.962-.204 2.442-1.6731429.082286 1.3594286-.968571-.7011429-1.283143.9977143 4.246285-.4045714-4.090285.4842857 9.488571.6137143L258.534 23.016l3.438-.6651429-1.718571.0454286 1.446857-.6582857-1.321715-.9917143 3.315429.2982857.504857-.8845714 2.935714 1.1074286 3.737143-.1962857 1.384286 1.1545714 3.750857-2.0742857 3.276 3.0865714-2.094857.0042857 1.442571.8074286-1.679142.066.441428 1.2051428 3.675429.648 1.960285 1.5205715 3.639429-1.4091429 4.198286 1.1434286 1.573714.9951428-1.218857.4002858L295.23 30.1122857l4.008857.0025714-.894 1.6585715 1.384286-.2897143.085714.954 2.062286.6214286 1.258286-.402L301.38 32.052l7.284 1.5368571L310.979143 33.39l-4.380857.5271429-11.951143-.1954286-.012857 1.662-.711429-1.0577143-1.089428.4577143.942 2.8594286 5.421428 1.3397142-2.170286.3308572 2.808858 1.7417143-2.895429-.4122857 1.018286 1.5531428 4.476857.15 2.206286-.9137143 2.042571 1.1708572.553714-1.1794286.249429.864 4.390286 1.1005714L310.464 43.548l2.567143 1.6217143 1.217143-.024-1.262572-.7131429 9.070286 3.6857143 2.132571-.5014286-.125142.9968572L327.071143 46.788l6.665143 5.0905714 4.592571-.822.887143-2.844 7.954286-.7877143-.696 1.3165715-3.673715-.1028572 2.452286.6265715-6.006-.654 1.601143 1.614-.456 2.9417142 1.521429.8391429 1.289142-.5751429 1.229143 1.8968572 2.386286-2.604.725143 2.3502857-6.596572 1.4528571 2.776286-.2682857 4.942286 1.8925715 2.751428-1.2994286 6.851143.7268571-2.136-2.3708571.140572-1.8291429 2.309143-.5794285 2.79.8014285-.043715-1.4511428.324 1.8934285-4.787143.4834286 2.446286 2.1162857 4.624286.072 8.786571 3.6977143.362572 3.5742857L369.875143 60.576 361.65 57.8708571l-1.566857 1.1014286-8.884286-.5948571-2.082857.954-6.317143-1.0431429-.228 1.1545714.983143 2.0674286 6.967714 1.278 3.083143 1.8068572 7.300286.5922857-.606857-1.4425715L362.352 62.676l4.359429 1.5462857-3.228 2.6417143-.026572-.7191429-1.455428 5.598 1.665428 1.002 3.292286-.5434285.874286 1.572 1.875428.5708571-2.918571.2982857 2.686285 2.5165715.371143 2.3674285 2.030572 1.1151429L371.875714 82.62 368.844 81.3497143l-.995143-1.374.186857.8571428 3.365143 2.7454286-1.317428-.2322857 3.260571 5.4874286 1.536-.1157143.043714 1.6345714 3.282 1.4948572.187715 2.1685714-3.099429.3308571-1.587429-2.9314285-1.559142-.3514286-3.21 3.0685714 2.147142-.4225714 11.048572 4.4751428-3.132 1.4442858 2.077714 3.0814281 2.062286 2.543143L387.888 106.302l-2.207143 2.204571.855429 1.134858-1.053429-1.125429-2.153143 1.382571 1.860857 1.488858 2.704286-1.115143 2.035714 2.119714-4.785428 1.943143-4.264286-1.428857-1.896-2.034-2.868 1.522285-.315428-1.364571-4.464858.522857 8.588572-6.902571-4.000286-5.146286-5.466857-.0668571-7.077429 2.9845711-1.092 1.884857 1.663715 1.59-2.179715-1.747714-.78 1.495714-1.570285-.721714.676285-1.086-1.614.628286 1.319143 1.832571-2.075143.276.530572 1.438286-2.971714-.288 1.494-1.486286-1.024286-1.700571-3.482572.981428 1.388572 2.301429-2.042572-2.082857-1.308.507428 2.672572 2.276572.057428.899143-2.644285-1.757143 2.991428 3.921428-3.080571-2.927142-1.441714.960857 3.589714 3.942-3.055714.966857 3.014571 1.116-1.948286.106286 1.981715 3.533142-2.666572-2.484857 1.815429 2.324572-1.620857-1.265143.074571 1.35 2.300571.617143-2.390571.660857 2.838 2.931428-.614571 1.790572 1.89-1.210286-1.540286 1.806857 2.513143 1.560857-2.375143-.918.023143 1.416 1.270285-.106285-1.017428 1.156285 2.360571-.106285-.564 2.716285 2.004857-.692571-1.772571 2.619429 1.208571-.009429 1.180286 3.178286.884572-1.757143-.912 2.500286 1.601142.273428-1.048285.252 1.849714 3.192857.845143-1.378285-.631714 3.422571.911142-1.278-.067714 1.858286 1.548857.325714-.400285 1.225714-1.460572-.779143 1.360286 5.187429 1.65-.768857-.579429-3.105429 1.819715 2.929715-1.211143 1.818-1.26-.904286-.999429 2.142 2.268857 1.938-1.898571.272571 2.149714.485143-3.481714.657429 2.776286-.314572-2.712 2.569715 3.206571.830571-1.673143-.352286.570857 1.072286-1.444285.240857 1.192285.208286-2.518285.839143 1.114285 1.096285 2.939143-1.805142-2.872286 1.843714.646286 1.425428 1.911429-.486-1.428857 1.140858 1.398857-.583715.081428 1.566 1.956-1.869428-.332571-1.152 1.865143.350571-.700286-1.627714 1.093714.864857.245143 2.171143-1.874571-.672857-2.399143 2.459143 1.542857-.005143-.946286 1.002 1.462286.696857.307714-1.393714.034286 2.192571 1.279714.655714-.251143-1.430571 1.238572 2.299714.855428-4.38-.294 6.234857 1.650858.57.776571-2.388.236571 2.802 1.513715-.819428.020571 1.32-1.960286.100285 1.709143 1.860858 4.472572.554571 1.760571-2.057143-1.119428-5.799428 1.808571-.918-2.388-3.714858 6.213429 5.426572.546857-1.017429 1.539428 2.170286-.858857-2.086286 1.866 2.767715 6.054 2.589428.100286 1.825714 3.841714 3.099429 2.436-2.142857-1.922571-3.798 2.262857-1.431429-3.588857-6.505714-4.307143-3.355714.802286-.784286-1.758.512571 1.435714-2.443714-1.312286-1.668857 1.834286.976286-.696857-2.861143-1.435715.401143.138-2.615143-4.812857-1.440857-1.420285.858857-8.358858-8.785714 1.487143.239142-1.074857-6.747428-1.629428-3.295714-4.116858-2.327143L371.454 129.696l-2.352857-1.744286 1.573714-.126857-1.336286-1.440857 2.127429-2.214 4.392 1.267714 4.794857 12.728572 6.107143 3.381428 3.132857 3.500572 2.898-.294.043714-1.372286 2.034 2.163429L397.137429 133.8l1.624285 1.239429 3.284572-1.488-1.418572 4.038 1.441715 1.497428-3.452572 2.610857-.688286 4.851429 3.812572 2.592857 1.128-1.259143 4.095428 3.952286.156858 2.195143-4.451143-1.088572-.435429 2.125715 3.046286 4.843714 6.335143 5.218286-1.089429 1.222285-2.076-3.754285 1.680857 3.201428-.326571 1.665429.962571 1.106571.641143-1.028571.096857 3.452571-.765428-2.413714-.589715 2.924571-3.124285-.428571-2.574 8.343428 1.212 1.900286-5.715429-.817714-2.421428 5.241428-.952286-2.126571-1.682572 1.786286-3.070285-1.003715-2.608286-3.790285.165429-4.979143-2.444572.119143-2.515714-4.826572-1.692 5.307429L389.79 186.386571l.257143-1.02 2.074286 1.039715-.291429 1.414285 4.987714 1.308858-3.501428.241714 1.327714 2.436-2.234571-.642857-1.397143 1.828285 1.831714 1.039715-3.858857 1.529143-.232286 2.156571 2.594572 1.374-.51 2.046-3.100286-2.089714 1.26 5.408571 2.196.165429-2.325429 2.554285 2.442857-.394285-5.089714 5.962285 2.057143 2.981143-2.028 6.246857-6.125143.832286 4.253143 4.258286-3.298286 2.460857-1.994571-1.284857-3.884572 3.996857 2.345143.400286-1.424571.464571 1.833428 1.963714 6.294-1.324285 4.010572 3.926571L390.684 237.462l1.087714 3.115714.717429.412286 3.394286 10.776857-16.910572 7.509429-2.645143-.671143-3.843428 5.666571 3.613714 2.580857 3.342 11.190858-.177429 7.528285 1.582286-1.798285L380.85 287.04l2.095714-.792857-.754285.425143 1.759714 6.916285 7.074-4.361142 6.638571 4.429714 2.844-5.349429 7.676572-3.749143.723428-4.770857 2.141143-1.779428-.806571-3.821143 1.481143-3.167143-2.320286-1.056857-1.104-2.990572.677143-8.032285 4.482-7.750286-2.982-3.924-.041143-2.735143 1.381714-2.525143 6.927429-1.180285 2.898-10.887429 4.788-.576857 6.551143 5.137714 17.303142.947143 4.477715 3.882857.906 4.886572 1.246285-.54-1.176-5.011715.751715-2.242285-3.628286-1.554858-.998571-3.732 2.490857-1.460571 2.447143 1.009714-.638572-1.826571-9.288-.125143-.878571-2.306571-3.403715 2.235428-6.957428-4.122857-4.688572-.420857-4.021714-4.597714 1.884857-4.367143 3.869143 3.664285-.175714-3.498857 8.361428 4.787143 2.280858-1.463143 3.468857.588857-2.031429.809143 5.135143-1.53 3.702857 1.018286 3.512572 6.441429 7.150285 2.891142.519429-1.263428-.125143 1.819714 2.107714 1.145143 4.596857-4.23.020572 1.685143-3.751714 2.406.512571 2.138571 4.084286 2.910857.247714-1.877142 2.46 1.790571-.860571-2.096571 2.108571.178285-4.074-3.494571 1.869429-1.364572-2.250858-.590571.499715-1.927714 2.076.400285-1.399715-2.217428-4.884.821143.522858-1.881429-1.234286-1.115143 1.270286-.260571-5.223429-3.438857.108857-1.47 3.937714.472285-1.640571-1.181142 1.774286-.742286-2.993143-.853714 1.598571-4.249715 3.842572-2.446285.886285 3.851142-.841714-6.798857 2.076-3.545143-6.381428-2.444571-.531429 1.051714-1.8-7.097143-4.62-6.105428 1.108286.708857.227143-1.991143-3.369429-3.605143.922286.562286-.571715-1.946571.611143 2.064-.792857-3.441429-1.509428-.372857 1.496571.349714-1.349143-2.300571.181714-3.889715 1.956858.399429-1.374 1.742571 1.094571-.643714.346286 1.134 2.359714-3.627428 1.250571.912.311143 4.281428.587143-1.826571L465.33 177.978l1.297714-.696-1.013143-9.554571-.784285 2.959714-3.670286-1.411714 3.737143 1.479428-.744.852L461.664 170.856l-1.554-3.709714 1.467429 1.969714-1.277143-4.044857.3-9.477429 1.794 3.434572-.812572 1.895143 3.131143.143142-1.049143-.003428 2.660572 4.604571-.092572 2.777143 12.226286-3.310286 3.312 2.103429 1.386 2.480571.770571 4.625143-1.278 4.524-2.822571 3.696-4.229143.369429-1.526571 4.278857.523714 8.521714-3.132 4.426286 1.476857 1.384286 1.212-1.315715-1.091143 2.592.916286 1.066286-3.515143 5.125714.558 3.336858 1.235143 1.939714 1.120286-2.458286 2.417143 4.154572 1.337142-.285429-.396857 1.74-1.522285-.839143.928285 2.099143 2.526-1.340571.537429 1.879714 2.243143.058286.204857 2.064857 1.428857-3.024857-.330857 3.874285 1.036286-3.499714 4.016571-.143143.839143-2.106857-1.603714-3.145714.749142-1.337143 4.550572-1.006286.84-3.785143-.957429-3.938571 1.575429-.876857-.097714-3.218572 3.301714 5.810572 3.348 3.205714 6.823714 17.051143-2.018571 7.033714-1.499143-1.425428-1.442572 2.147142L501.192 241.422l-5.048571 3.030857-3.427715 4.338-1.532571-1.285714-3.666 3.500571-1.631143-1.487143-3.621429 2.219143-1.582285 7.221429 3.062571 5.826857-1.118571 5.155714-4.160572-.025714-6.252 3.016286-3.594-3.079715-5.857714 1.892572-2.757429 2.722286-7.86.249428-1.422857-1.349143.761143-7.089428-4.045714-2.664857-.786857-5.477143-.693429 2.956285-3.381428-1.452-3.869143 6.025715-4.783715 1.812-2.122285 4.125428-4.948286 1.421143-7.789714 7.152-2.175429 5.004-2.846571 2.178-2.170286 4.872-3.022286 1.306286-1.116857-1.361143-5.473714 3.911143-3.972-2.233714-1.408286 1.329428-.208286 9.979714-6.940285 10.962858-.528857 6.48 2.500285 6.274285-1.194857 4.569429-3.997714 6.858857-5.288572 3.616286-1.655142 7.400571-2.960572 3.357429-.420857 8.016857-3.601714 5.628.773143-1.096286-3.871715 12.230572.156 4.824.638572-1.810286 3.900857 3.639428-.979714 4.515429 3.384857 7.162286-1.206857 10.382571-3.939429 5.688 5.199429 2.714572.288 2.386285 4.260857-1.952571-3.498857 2.268857-1.797429-.498.198857 4.149429 2.527714-.887143-2.513142 1.661143 3.598285-.723429-1.470857 1.585714 2.378572-.188571-.364286 1.312286 4.625143-2.549143-2.562857 1.696285 2.280857.007715-2.057143 2.079428 1.398857 1.125429.995143-1.158857-.232286 1.299428 1.708286-1.248 1.481143 3.565715 4.422.509142-.75 1.568572 2.006571.143143.891429 3.363428 1.547143-.638571-2.059715 1.302857 4.085143 1.605429-.177428 1.770857 6.094285.552857 11.856857 4.284 5.578286-.304286 5.775429-5.182286 8.939143-5.153142 8.616-1.975715 12.888-13.074 9.312857-7.568571-1.490572 1.930286 3.876857-2.196 2.569715.991714L472.896 410.85l-.956571 1.746 1.731428-.683143-1.323428 1.089429.743142.308571 1.110858-1.396286-1.032 2.352 2.529428 2.084572 2.592-1.871143-.016286-1.190571.590572.706285-.408857-1.072285.897428.677142.138-1.697142 1.026857.579428L483.78 409.764l-.273429-1.535143 1.249715 1.067143.864857-1.8 1.554857 2.383714 1.699714-1.960285.436286.925714-.983143.737143 1.636286 1.916571L488.107714 420.9l1.204286-.508286-.075429 2.612572-1.206857.664285 2.304857-.369428-1.641428 1.736571-.516-.852-.768857 4.856572-1.477715.908571 2.960572 4.534286 6.486857 2.439428.947143 3.702858 1.483714-.268286-1.326 1.549714 2.325429 5.389714-1.677429 3.616286 1.257429 4.603714-1.667143 4.874572-4.546286 7.047428-4.974 10.146858-2.393143 6.787714 1.336286 7.157143-5.449714 9.638571-3.158572 6.011143-1.701428 1.774286-1.813715 1.853143-2.178 2.182285 1.447715-1.446 1.168285-1.182857 7.781143-8.215714 4.581429-5.141143 6.058286-7.182857 10.839428-14.1 6.125143-8.803714 3.800571-5.82 5.687143-9.303429-.611143 1.036286.049715-.084 8.204571-14.807143 3.33-6.631714 1.368857-2.848286 1.417715-3.037714.033428-.072858 3.458572-7.812 2.172857-5.238857 5.484857-14.682857 2.971714-9.108 1.704-5.721428.423429-1.488858 1.215428-4.450285.882857-3.419143-.218571.552 1.002-5.25.528-2.489143-.246857.899143.875143-4.343143-.196286-1.219714 1.086857-6.805715 1.567714-10.961142.792-4.537715-.114857-.607714.435429-1.687714 1.697143-18.202286.920571-15.105429-.108-14.774571-2.972571-29.251714-.808286-3.768857-.174857-2.204572.064286 1.390286-1.454572-6.428572-.119143 1.027715.699429 7.063714-.124286 7.271143.224572 5.176286-.401143 1.361142-.056572 6.021429-2.008285-.295714-.307715 2.419714.041143-4.642286-.566571-1.790571-4.074857-1.676572-1.230858 1.841143-1.05-1.177714.414858 2.182286-5.442-8.276572-2.506286.294-4.420286-8.481428.498857-.036857-2.332285-2.707715-3.127715.164572-2.221714-3.390857.428571-.846-2.040857-.473143-9.380571-8.82-3.978-1.787143-2.568-3.432857 4.411714 3.397714 3.271714.432-3.440571-9.275143 2.988 6.880286.876-1.686857 8.759143 5.377714 1.946571 2.668286 2.256857-.761143 3.415715 3.347143 2.566285 5.054571 3.798858.411429 6.208285 5.806285 2.089715 6.331715 3.735428 7.398857.719143-5.455714-.446571-4.385143-.099429-12.663429-.716571-4.423714-1.518-13.013143-1.26-4.104-1.676572-10.280571-1.459714-4.356858-.632572-3.316285-1.608-4.467429-1.083428-4.218857-2.160857-4.503429-.911143-2.426571.131143-.296571-4.402286-10.398-1.794857-1.309715.189428 3.366857-.851142-.217714-2.340858-2.91-1.788-3.228 6.031715 15.138.257143 4.327714.711428 2.526-.712286 1.092858-3.631714-6.678-.096 1.526571 2.862 5.244857-2.831143-2.269714-1.507714-2.82-2.356286.488571-4.460571-4.039714-.122572 1.088571-.364285-2.033142-1.400572-1.179429.276857-2.482286-.984-1.435714 1.05-.486857-.459428-2.194286 5.658 4.02L526.074 186.12l1.930286-.575143.108-2.489143-2.536286-8.042571 2.921143 2.928857-1.763143-10.688571-6.745714-15.864858 1.41 1.944-.763715-1.677428 1.510286 2.247428-1.382571-2.706857.943714 1.566857-1.472571-2.629714 1.324285 2.315143.115715-.064286-2.303143-4.084285 1.271143 2.186571 2.449714 4.403143-.078857-.202286-3.093429-5.451428-2.508-4.233429-.936857-1.542 1.269429 2.095714.557142.93-.700285-1.169143 1.301143 2.181429.471428.800571 2.228572 3.866572 5.688 10.526571 5.112 10.421143 2.809714 6.201429.065143.148285-1.198286-2.695714-1.358571-2.970857-1.729715-3.664286.038572.079715-1.946572-3.981429-.936857-1.863429-2.374286-4.584-4.044-7.395428-3.115714-5.380286-1.589143-2.648571-1.237714-2.022857-1.795714-2.868858-2.402572-3.732-1.054285-1.600285-6.237429-9.036857-4.287429-5.824286-3.996-5.176286-3.312-4.119428-1.209428-1.468286-2.766-3.287143-1.794857-2.082857 1.203428 1.392-2.152285-2.477143.403714.460286-1.266-1.437429.469714.531429-1.527428-1.7194289.128571.1439999-1.749429-1.938857.913715 1.0088571-2.857715-3.1242857 1.41 1.53-.860571-.936-1.304571-1.4048571-1.678286-1.782L482.16 97.7888571l-1.732286-1.8831428 1.400572 1.5188571-.996-1.0825714.935143 1.0157143 1.169142 1.284.460286.51L481.655143 97.236l3.931714 4.372286 5.049429 5.878285-1.559143-1.848857 1.596857 1.893429-1.185429-1.408286.337715.398572-1.365429-1.607143.415714.486857-1.919142-2.229429-1.674858-1.910571-.652285-.734572.209143.234858-1.805143-2.013429-1.92-2.1025714 1.896857 2.0768571-.932572-1.026 4.717715 5.2894283 3.066857 3.577715-1.360286-1.600286 2.351143 2.782286 2.894571 3.520285-.101142-.124285 3.518571 4.427142 1.758857 2.278286-1.303714-1.692857 6.42 8.589429-1.105714-1.524858 2.553428 3.555429 5.099143 7.444286 2.661429 4.086 1.025142 1.614857-1.532571-2.404286.320571.499714-2.658857-4.072285-4.501714-6.581143-1.694571-2.382-1.682572-2.318572.892286 1.223143-4.797429-6.432 1.118572 1.466572-2.825143-3.672-6.644572-8.198572L487.2 103.452857l-2.452286-2.792571 2.724857 3.106285-1.854-2.124.047143.053143 3.024 3.487715-1.610571-1.870286 1.867714 2.171143-1.030286-1.203429.063429.073714 4.029429 4.783715-.627429-.758572-3.302571-3.908571-1.284-1.484572.261428.300858-1.368-1.564286.398572.453428-.737143-.838285-.341143-.385715-.148286-.167142-.454286-.51-.856285-.9557147-.223715-.2477143-5.946857-6.4028571L472.950857 88.134l-.511714-.5117143-7.710857-7.4228571L462.848571 78.468l-.112285-.102-3.801429-3.4088571-3.834-3.3222858-2.677714-2.2542857-1.554857-1.2848571-.258857-.2125714-.784286-.6394286-1.450286-1.1725714-2.704286-2.1454286-1.614-1.2557143-1.401428-1.0774286.510857.3908572-2.178857-1.656.227143.1705714 2.549143 1.944 1.950857 1.518-.765429-.5974286-4.330286-3.3111428.648.4877143-3.601714-2.6768572-1.098-.7988571-1.038-.7491429-1.098-.7842857-.577714-.4105714-2.462572-1.7245715 1.244572.8674286-1.440857-1.002.137143.0942857L428.262 51.258l1.305429.8854286-.864858-.588L426.432 50.034l.908571.6042857L425.123143 49.17l.426857.2802857-2.872286-1.8668571-1.677428-1.0697143-.223715-.1414286-2.132571-1.3354286-1.560857-.9617142.470571.2888571-3.228-1.9542857-.271714-.1628572-1.872-1.1057142-1.244571-.7251429-.700286-.4045714-1.250572-.7157143-.481714-.2734286-1.883143-1.0585714.428572.2391428-2.647715-1.464-2.088-1.1297142.54.2897142-.595714-.3205714-.912857-.4868571-.408-.216L394.368857 31.5l-.355714-.1774286-2.715429-1.332-1.284857-.6188571-1.742571-.8262857-.303429-.1422857-1.347428-.6282858-1.586572-.7294285 1.624286.7465714-3.164572-1.4434286-.030857-.0145714 2.915143 1.3285714-6.787714-3.0342857-1.348286-.5794286 1.172572.5031429-3.128572-1.3294286-1.272857-.5288571-5.390571-2.1634286L370.818 21l-1.239429-.4868571L363.15 18.09l-.450857-.1637143-1.222286-.4397143-2.041714-.7208571-4.528286-1.5402857-.869143-.2862857-2.439428-.7885715 3.430285 1.1151429 6.652286 2.2937143-2.88-1.0148572 2.590286.9111429-2.476286-.8717143-3.957428-1.3422857-11.066572-3.4328572-3.331714-.9428571.876857.2442857 6.626571 1.938-1.956857-.5897143L350.720571 13.872l-11.067428-3.2545714-3.973714-1.05685717 4.164 1.10914287-.252-.0685714 1.777714.4911428 2.594571.738-1.284-.3685714 1.296857.372-1.125428-.3231429L341.994 11.268l-.897429-.252 3.426.9771429-.402857-.1174286 2.052857.6034286.924.2768571-1.367142-.4088571 2.350285.7062857-.860571-.2605715 5.786571 1.8094286 1.350857.4414286.805715.2665714.842571.2811429-3.503143-1.1511429 1.289143.4182857-2.298857-.7414285.807429.258-1.679143-.534-.213429-.0668572-2.322-.7182857-.148286-.0454286L342.69 11.4651429l-4.460571-1.2325715-5.048572-1.30628569-.047143-.012-2.449714-.6-9.571714-2.136L317.141143 5.388l-4.352572-.80314286-1.489714-.25971428-.748286-.12685715-4.471714-.72085714.128572.01971429-7.536-1.06285715L281.328857.72342857 266.095714.05485714l-6.987428-.024-3.516.228 2.984571.20485715-1.811143-.02314286-.664285.09514286L261.348.84942857 264.676286.876l.252857-.108 3.986571-.06771429-1.445143.24428572 3.037715-.114-.359143.33 3.318857.10371428 1.439143.22457143-9.216857.44742857-11.73 2.01857143-8.535429.58285715L244.348286 4.362l-1.058572.35485714-6.559714.36771429-.936.57342857-7.990286.498 3.090857-.51771429-.868285-.126-9.747429 1.77857143.914572.14742857 2.144571-.396.204857.37542858-4.046571 2.502-8.095715 2.27657141.324858-.9685714-.528-.2485714-1.380858.4517142-.177428-.4928571-3.319714 2.16-2.157429.5828571 1.720286.69-2.661429.9917143-1.944.2742857 2.172857-.9248571-1.888285-1.3825714 3.655714-1.482 5.337428-3.75514289 3.657429-.89914285.948857-1.05257143-.567428-.87342857-8.366572-.10885715-4.026 1.21114286 1.313143-.00771428-4.724571 1.09971428 1.725428.13371429-5.225143 1.65171428 2.34.35057143-3.269143.95400003 3.776572-.0428572-.99.6342857 4.099714-.8588571-.834857 2.3708571-1.837714.6497143-1.436572.0428572-2.034 1.4777143-1.336285-.408-.485143.9188571-4.664572 1.8728571-3.93.5005715.612.4637143-3.180857 3.312L177.097714 25.182l-4.625143 1.8291429.416572.6685714 7.542-.3514286-.803143-.1585714 2.984571-.2768572 1.751143-1.452.520286.2631429 1.935429-.8382857-7.571143 3.8648571.224571 1.5685715 2.646857.4568571-1.346571.8554286-2.845714-.588-2.894572 1.8814285-4.230857.648-4.303714 1.6568572.484285.45-1.549714.0557143-.840857 1.032 2.719714-.9137143L166.686 37.086l1.494857.1971429 2.106-.8571429-3.669428 1.932 1.868571-.276-2.030571.8374286.684857 1.1151428 5.650285-1.6894285 3.329143-1.8042858 1.187143-.9762857-4.109143.1405715 7.084286-.324L191.424857 32.514l.020572-.0077143M154.086 580.464857l1.161429.438857-.094286-.035143 4.114286 1.510286.791142.282857-1.693714-.608571.233143.084857-1.794857-.655714L160.41 582.786l.900857.317143 4.804286 1.638857 2.676857.875143-2.194286-.714-1.904571-.636 1.914857.638571-1.766571-.588857 2.58.855429-1.544572-.509143 1.562572.515143 1.23.399428.077142.024 4.313143 1.350857-1.010571-.310285L168.33 585.468l-4.305429-1.439143.856286.21 4.183714 1.266857-1.351714-.752571 2.513143.490286-2.831143-.972858 1.848.485143 1.584857.618857 1.410857.283715-1.405714-.660857-1.969714-.387429-2.596286-.954-1.819714-1.285714 5.022 1.736571 4.769143 1.147714-1.813715-1.647428 1.258286.396857-2.022-1.032857 4.940572 1.462286 9.489428 1.788857 3.304286.273428 2.348571-.799714-.744857-.765429-2.953714-1.006285.133714-.776572-6.422571-2.457428-.718286-1.991143.828857 1.355143 2.872286 1.344857 7.372286 2.042571 8.137714 1.071429L205.74 583.092l.612-1.884 4.406571-1.751143-1.112571-.78 3.494571 1.232572-5.744571 2.053714 5.083714-.986572 4.011429-2.744571 3.930857-1.011429.848571-2.641714-1.899428-1.902 1.905428-1.377428-1.899428-.612L221.88 571.134l2.766-1.486286 5.444571-1.335428 4.589143.133714 4.635429-1.805143 4.128857.503143 2.237143-.868286.189428.731143 4.993715.177429.220285-1.110857 4.705715-1.210286-.438857-1.246286 6.161142-4.851428.553715-3.324 2.807143-1.910572 1.588285-14.501143.797143-.804 1.106572 1.343143 2.068285-1.140857 16.316572-14.987143.825428-4.274571-2.331428-5.915143-1.837715-1.266857-7.979142-.186-6.891429-4.590857-8.085429-3.232286-11.702571-.063429-6.070286-2.226857-7.265143 3.600857.341143-2.795143 2.023715-1.002857-3.269143.259715 2.626285-1.400572-1.833428-2.584286-2.112 1.590858-.463714-2.116286-1.014.700286.551142-.832286-1.454571.457714-1.527429-1.62-.829714.965143-.260571-1.659429-.782572.834-4.908857-2.426571-.393428.891429-3.562286-.982286-2.274857 2.956286 2.215714.550285-1.962857.432-1.071429-1.327714-4.279714 3.411429 1.030286-2.439429-5.974286.228 7.954286-.898286 2.631428-4.522285-10.085143-1.867715-2.364857 3.378857-.18-1.878-2.122285 1.495715-.211715-1.935429-2.110285 1.628572 1.990285-3.373715 7.282286-4.289143-1.236857-.187714 1.072286-1.934571-4.281429-2.112857-2.623714-9.339429-1.252286-.915429-.584571 1.487143-3.158572-4.223143-9.425143-5.466857-14.922857-2.483143-5.750571-5.803714-1.816286 1.849714 1.225714-3.932571-2.636571-3.351429-5.592857-4.35-3.161143-.525428.348857-3.75-3.612-3.024-3.387429-.491143-2.419714-3.202286 4.999714-.387428-11.362285-2.744572 2.838857 1.617429-6.793714-.001714-5.233715-4.339715-8.748857-2.123143-.882-3.557142-5.367428-3.261429-1.374-3.943714-1.262572 2.208 1.950857.436285-.072 1.224858-1.478571-1.206858-6.81 1.020858 1.965428 5.789142-.39 1.714286-2.924571.043714-1.503429-4.109142 2.856-3.007715-1.231714-4.496571 4.012286-.756-2.190857-2.824286-7.6191431 2.448-3.6917143-1.814571-.7637143 1.267714-2.3348572-1.56-1.9234285.576857-2.2251429 2.079429-.0137143 3.235714-5.9262857 1.330286.3994286 3.133714-3.972-7.47L74.514 409.648286 71.9322857 408.048l-6.1817143.394286-2.9408571-3.444.2717143 1.302-1.7211429-1.254-4.7117143-13.749429 4.9525715-11.97.1542857-4.574571-5.1917143-7.020857-11.1342857-5.976858-2.412-2.85 3.5734285-3.035142 2.0674286-5.997429-.9814286-.831429 1.7408572-1.338-.1182857 3.525429 3.174-5.362286-.9891429-1.129714 5.4248572-5.405143-4.0302858-4.420286-7.6671428-2.475428-3.7242857 6.546857-3.8211429 2.060571-2.0991428-3.051428L28.608 335.425714 27.294 330.51l-1.8891429-1.752857-.0197142-19.827429.5802857-2.613428 3.48-8.400857 1.5111428-3.073715 1.3277143.294857-1.0688571 1.499143L33.984 293.456571l1.8694286-6.438-.8605715-.99 1.0405715.737143L38.286 283.606286l2.5654286.759428-.0822857-1.875428 1.6234285 1.976571L41.418 284.61l4.0371429.107143 1.7031428-2.553429 1.0422857 1.946572-1.212.150857 3.1371429.792857.6-1.440857-.552 1.392857 3.8014286 4.257429 1.998-.213429L57.24 294.640286l1.7142857-.249429.552 1.696286.6068572-2.132572L61.194 295.326l-.0445714 3.345429 1.7494285-.277715-1.368-3.314571 2.0297143-.439714L60.792 290.554286l6.8965714 4.553143 1.3277143-1.842-.1105714 2.324571-1.0697143.157714 3.8091429.372-1.0011429.882857 3.3488571 1.384286-1.1854285-.183428 2.7771428 2.316857-.4911428 3.484285 4.5754285.136286 1.3268572 2.07 1.662 7.067143-2.4608572 4.254857 1.6551429.547714-1.764 1.636286.2451429 3.306 1.338.432-.7217143 5.556857 1.9774285 3.047143-.8854285 1.98 2.0014285.825429-.3582857.983143L88.3431429 328.14l1.8685714-23.902286 4.95-3.015428-.0128572-1.630286.2597143 1.536857 8.9682856-3.896571 10.398857-1.244572-2.015143-1.618285 2.221715-.427715-1.41-1.937143 2.598857 2.136858 2.005714-.765429.207429-1.889143-1.222286 1.284857.537429-1.705714-2.424-.809143 2.466-.924L118.74 291.102l.636857-3.399429-.276857 5.240572.512571-6.285429-2.724-3.121714 1.638858 1.653429-.498-2.766.475714 1.870285 1.282286-1.199143L118.5 280.053429l1.160571 2.712.954858-1.167429-2.749715-3.933429.958286-1.362857 1.784571 4.452857 1.368-6.379714 3.011143-.183428-2.988857 2.542285.772286 5.382-2.632286 3.668572 5.419714-4.873715.913715-7.134857.721714 4.838572 4.104-2.880857.767143-3.888858 3.327428-1.596857 7.584 1.324286 1.092-2.157429.041143 2.074286 4.525715.634286.345428-2.076-1.521428 1.290857-1.238572-4.180286 5.083714-5.601428 1.618286.455143.594-1.718572 1.616572 1.464857 2.563714-3.165428-.627429 1.758 2.390572-.697715.169714 1.469143 4.495714-1.173428-.095143-2.288572L166.152 259.272l8.348571-1.946571-2.874857 2.153142 5.306572 1.362858-2.989715 1.103142-.808285-2.055428-6.740572 2.534571-1.320857 3.417429L166.914 268.332l5.682857-4.399714 2.041714 1.318285.386572-1.494857 8.706-.197143 1.382571-.366-2.469428-3.642857-4.876286-.357428-3.814286-4.390286.926572-3.865714-2.016-.583715 3.168857-3.050571-3.09.175714.008571-1.684285-2.899714-1.343143 4.927714 1.413428 3.600857-1.142571.229715-3.693429-4.688572-1.951714-7.189714.763714-12.701143 5.484 5.806286-3.143143.696857-2.461714 9.909429-2.377714 4.492285-3.732 20.139429 5.569714 5.136-4.134 5.595428.300857 4.704858-2.594571-1.307143-2.129143 1.907143.376286-2.613429-1.311429 2.355429.491143-1.032858-1.433143 1.77-2.295428-1.506857-2.640858-3.086571 1.29 1.367143-2.411142-2.682-2.101715-8.978572 3.168 8.366572-3.243428-3.78.161143 7.277143-1.277143-2.247429-1.334572.946286-.749143-3.083143-.123428.300857-1.642286-1.328571.672.973714-1.194-2.801143 1.946572 2.066571-1.688572-1.684285-.121714.921428-.978-3.093428 1.092857 2.233714-3.603429-1.307143.882.607714-1.230857-2.932285-1.529143 1.589143-.956571-1.906286-.498 1.295143.037714-1.422857-1.358571 1.646571.072-2.013429-1.660286 2.086286 1.262572 1.596857-2.108572-2.429143-2.660571 1.903715-.248572-1.534286-1.950857 1.002-1.003714-2.663143.341143 2.913429-1.872857-2.980286.166285 2.618571-1.412571-.092571-1.866-2.316857-.465429 2.028857-.357428-1.723714-4.803429 1.204285-.800571-.894857-.920572-2.838857 2.418857.555429 2.067429-1.988572-.013714.611143 1.369714-2.319428.480857-.786 2.639143.152571-3.032571-4.870286 2.868857.375429-2.918572-2.871429 2.125715 2.468572-3.316286-4.522286-1.608 1.591714-.935143.147429 1.405714 1.855714-2.089714-1.219714-.435429 1.546286-2.897142-2.434286-1.340572 2.897143.948857 2.494285-4.410857-1.477714.889714-2.929714-3.023142 1.254857-2.002286-1.619143-.415714-.648-5.196-2.663143.890571-4.400571-4.686857-2.399143.646286-.659143 3.746571-3.590571 2.454 1.604571.480857-1.556571 3.746572-6.738857 4.434 1.677428 4.597714-3.251143 7.824-5.461714 3.649714-6.722571.294.462857 2.974286-3.547715 9.514286-2.821714 1.303714-1.048286 2.929714.122572-2.830286-2.508857 1.810286-1.819715-1.808571 1.296858-1.853143-.817715-7.928572L145.14 192.858l-5.97-4.189714L135.044571 172.35l-4.944857-1.278 2.189143-1.144286 3.650572-6.396857-1.460572-1.638-1.476857 1.364572 1.263429-3.462858 5.709428-5.083714 6.744857-2.506286.250286-1.283142 4.925143-.039429.172286-1.652571 1.280571 1.444285 2.502-.500571.323143-3.216-1.686857-.27 1.183714-.549429-1.741714-2.658857 1.319143-.882 1.609714 6.486 3.580286-1.884857 2.733428 2.131714 5.294572-2.476285-2.898858-7.098858 1.744286.924858 1.139143 5.055428 5.100857-1.662-.002571-2.313428 3.028285 4.339714.541715-4.2 1.876285 1.147714-1.053428 2.703429 6.877714-2.366572 1.061143-4.994571 2.659714.391714-.356571-1.567714 2.039143-.624857-1.523143-2.808857 1.492286-.042858L186.846 130.728l-2.85 4.826571-1.187143-.820285-6.117428 4.335428-2.166-.108 5.568-7.192285-.162858-2.140286-5.067428 2.826 3.022286-5.136857 1.636285.647143-1.976571-3.104572 2.729143-1.348286.696857.965143 4.116-8.415428-6.786857 1.736571.373714 1.109143-3.918 2.265429 1.048286 4.281428-1.222286-.697714-2.654571 1.512857 1.915714-.080571-1.297714 1.799142-4.308-.330857-3.384858 3.126857-.096857-2.212285 3.984-2.117143-2.040857.132857 1.595143-.696857-.225429-1.565143-1.851428-1.104857-1.367143 2.162571 1.043143.813429-1.866 1.266 1.091143-3.204857-2.060572.957428-3.378-3.619714 1.104-2.778857-1.384285-1.806857 2.571428-3.522857-4.982571-1.161429.456 1.714286 3.305143.906857-5.412-.403714-2.092286 2.910857-1.434857.858857.086571-1.243714-2.286 2.388 2.148857-3.606 1.421143.095142 1.810286-4.397142-2.750572-1.328572-1.198285-4.273714 1.737428-1.072286 1.681715 1.147714 1.663714-2.375142-.917143-2.478858 2.895429-7.4794281-2.889429-2.0528572 4.200857-1.6388571-4.5.39L160.867714 85.452l-2.109428 1.3105714-4.189715-2.8028571 4.655143.1088571-4.257428-2.7197143-.408-1.2702857 2.293714-.882L154.653429 78l-2.884286 1.4905714 9.494571-10.6431428 5.262-8.7282857L168.33 58.6208571l1.120286.318.981428-1.9525714 2.259429-.8802857-1.02-.9377143 1.517143.4551429 1.687714-.8648572-1.271143-1.3714285 1.214572-1.7982858-1.919143-.2974285 1.514571-.204.302572-1.8265715-3.368572-2.4085714 2.016-2.2962857-1.41-.8262857-5.864571 2.532-2.614286.408-2.593714 2.2474286-2.214.168-1.646572 1.4725714 1.406572-1.5822857L161.485714 48l-4.944 1.548 2.831143-3.0745714 2.826857-.6591429 1.173429-4.2394286-4.336286 2.2088572.848572-1.0405714-3.217715.792-4.617428 3.6282857.976285.024-1.724571.4388571.831429 1.2265714-1.629429 1.194-.342857-.882-3.158572 1.1142858-.984-.4465715 1.597715-1.5017143L146.763429 47.16l2.281714-1.4434286-4.122-1.9251428-2.34.8185714-.940286 1.0225714-.334286-.4045714-3.177428 2.376.888-1.4134286-3.228.7525715-1.548857 2.5902857L129.259714 51.03l-.913714-.6488571-.824571 2.4162857-4.62 2.6605714 2.493428.006-2.540571.9102857L122.851714 58.14l-1.671428-.5897143-3.765429.9557143-.527143-3.7328571-2.088857.5657142L117.621429 52.728l-1.450286-1.6465714.15.4465714-.942.7414286 1.401428-.4285715-1.806857 1.2685715 1.285715.1988571-1.509429.7782857-.268286 1.8968572-1.416857.6154285 3.326572 4.518-.264 1.9542858 1.874571.8734285 1.643143-1.5994285 1.464-.2785715L125.960571 65.814l-.596571 2.0305714-.715714-1.0851428-2.451429 2.0442857 2.22-2.4111429-.437143-1.2771428-3.618857.1731428-.771428 1.4485715-1.880572-.6702858.132857 2.7197143 1.338-.3017143-1.236857.5734286 1.698-.2768571-1.595143 1.7742857L119.76 70.806l2.136857-1.5848571 1.344857 1.0362857-1.848.2288571 1.160572.2091429-1.340572.5108571.365143 1.3834286-.686571-.4114286L120.033429 73.35l-.179143-.7937143.045428.8391429-1.568571.5502857-.718286 1.7074286-2.313428 1.5565714L114.162 81.702l-2.534571 2.4711429 1.264285.78-1.382571 1.4331428-.922286-.3111428 2.007429-1.0062858-1.872.1002858-7.113429 7.6654285L104.184 93.66l3.347143-2.9485714-1.662 1.95 1.397143-.4688572-3.134572 1.6825715-.839143 1.7168571 5.597143-2.6948571-4.993714 2.9537142-.985714 1.482 1.413428.1225715-2.051143.306-1.038 2.0254285-.342-.6257142-1.3208567 1.7957141 1.0868567-1.8179999-1.6722853 1.7999999-.6814286-.586286-4.4031428 5.808-2.7402857.087429 2.1257143 1.067143-1.5162858 1.377428-4.2325714 1.904572 2.3777143.135428 2.6785714-1.013142-3.7757143 1.53-.4071428 1.205142-1.3851429-.768-1.4974285 1.701429 1.4742857-1.700571-1.212.576857-.6102857 2.165143-1.1537143-.453429-2.4282857 2.97 2.6768571-.264-1.9071429.928286-.1808571 1.434857.1577143-1.866857-3.2862857 4.340571-1.9097143-.059143 1.0097143.211715-1.3448572 1.128857 2.0725715.582857-3.63.337714-1.4374286 1.386.9617143.330857-1.5497143-.183428.2288571 1.436571-.8785714-1.028571.3162857 2.291143-.8854286-1.362858-.0274285 3.006-.4825715-.565714-.5451428 1.185429 1.3791428.637714-1.6551428-.625714-.7114286 1.839428 1.2694286-.323143L70.11 132.228l.0454286 1.079143 2.1068571-.758572-2.5157143 1.126286.9617143 1.072286-2.136.39-.8965714 1.931143 1.8214286-.306-1.7057143 2.014285-.924-.409714 1.0182857 1.211143-2.6605714 1.990286-.7491429 2.254285-4.6782857 4.397143-2.0802857-.200571 1.9611428-.476572 1.6028572-1.549714-2.5011429.528 3.2185714-1.475143.168-5.093143-5.4111428 5.536286.306.707143-2.76 1.464.1594286 1.600286-.288-1.326857-12.5897143 9.187714-4.6808572 5.712-3.5622857 2.379428-4.7717143 6.784286-2.6631428 4.990286.6171428 1.786286L24.768 181.488l.8314286-2.432571-1.8977143 2.304-5.1985714 12.022285-1.698 2.082857.1148571 7.678286-1.2145714 5.918572-7.51200003 18.234857-1.19828571 9.760285-1.62685715 1.573715-.174 1.898571-1.12714285-3.404571-.594 8.100857 1.23257143.223714-.73714286 6.336-2.62971429 5.341714.28971429 10.514572-.77571429 3.692571L2.358 271.662l1.08428571-4.638857-.77485714-3.701143 3.42771429-11.019429.99428571-8.584285 1.42628572-3.158572 1.64742861-11.068285 4.398-8.364858.4885714 7.732286-4.3448572 11.481429-.89314281 7.160571.76628571 1.971429-1.35514286 2.291143.08142857 8.158285L7.49657143 261.552l1.04571428 6.382286-.77485714 1.896857.35742857 13.154571-.98314285 8.238-1.89685715 1.934572.28285715 1.638-1.20085715-.553715L4.062 296.350286l1.60628571 13.098 3.04628572 5.944285L9.83914286 320.862 19.5 340.344l6.9951429 3.814286 6.8365714 17.445428 8.562 10.586572L41.148 371.106l4.6105714 2.52-.0857143 2.422286-1.3542857-.871715 5.6408572 12.982286-1.1297143.067714.9634286 1.200858-.6274286 3.778285 1.818 2.850857 1.0748571-.615428-1.2462857-2.898L52.59 395.116286l3.5854286 6.628285-.1302857 2.725715 1.0697142.902571-.1962857-1.787143 1.4717143 4.188857.8125714-.873428 3.6145715 2.633143.7071428 2.722285 1.8874286.122572.3308571 3.420857 1.7897143.832286 1.8934286-.228-1.5737143-4.125429 5.9194286-.576857 2.3477143 4.412571 1.5094285.411429-1.626 1.468286 3.9891429 8.16-1.6817143 9.501428 2.0442857 2.232-.5108571.96-2.8088572 2.743715L73.734 440.856l.0514286 2.838-2.0657143-.525429.3822857 2.551715-4.71-1.320857.5545714 2.748857-2.2037143 1.054285.906 1.596858-2.508.133714.1782858 5.049428 2.6494285 3.013715 1.4048572-1.232572.7088571 1.830857-1.0285714 2.388-4.7545714.704572 1.998 6.114857-1.0671429.545143 4.92 5.404286 4.626 7.433142L80.8371429 494.7l7.3671428 9.915429-.432 1.285714L90.318 509.232l3.774 3.839143 16.915714 12.264 5.947715 5.289428 2.148857 4.736572 1.608 3.996857-.3 4.462286 2.785714 4.847143.084 6.337714 2.282571 2.448-.756.719143 4.802572 5.824285.126 3.413143-1.464857-.457714 5.464285 3.668571.374572.87 2.628 1.320858-.562286-.185143 2.137714.816 1.44.635143.617143.181714-1.007143-.235714 2.235429.999428.192857.172286-1.558286-.697714 1.737429.798857-1.266857-.547715.941143.580286 1.910571.846-1.092-.424286 3.038572 1.288286-1.667143-.684 2.718857 1.132286-2.141143-.888857.375429.157714 1.090285.453429.080572.033428-1.424572-.593143-1.727143-.731143 1.353429.573429-1.086-.459429.184286.078858-.638572-.271715-1.35-.581143-.987428-.430285 1.926.834857-.308572-.132-1.732285-.753429 1.365428.594857L140.454 574.902l1.518.658286.707143.303428 1.876286.794572 1.657714.689143-1.429714-.593143 1.934571.802285-2.189143-.908571 2.942572 1.216286 2.159142.869143-1.543714-.619715 1.442572.579429-4.310572-1.757143 3.076286 1.261714-1.431429-.582 1.248857.508286-.256285-.103714.890571.359143 1.836.731142-2.144571-.855428 2.132571.850286-2.643428-1.056 2.413714.965142.244286.096858.96.375428 1.002857.39-2.501143-.979714 1.907143.748286-.386572-.150858 1.911429.738-.324857-.124285.973714.371143-.912857-.348 2.438571.922285-2.698285-1.021714 1.236.472286-.345429-.131143 2.194286.825428-.898286-.336.139714.053143-.409714-.154285-.197143-.074572-2.233714-.853714.551143.212571 2.246571.852857-1.148571-.433714H154.086M248.28 197.094l1.646571-1.68 2.448 1.482857-2.655428-2.473714 3.461143.168857-1.615715-1.359429 2.155715-1.119428-2.320286-.416572 2.493429.276858-1.486286-1.228286 2.155714-.72-1.663714-.546857 2.13-.460286-1.576286-.354 1.929429-1.104857-2.053715-2.551714 2.028858.712285-2.351143-1.848 3.302571-.264857-.719143-2.080286 1.870286.968572-1.401429-1.998857 1.829143.851143-1.059428-.931715 2.004-.426-1.749429-1.358571 2.304857.851143-.157714-2.019429-2.230286-.715714 2.785715-.411429-1.710858-3.781714 2.011715.734571.634285-2.749714 3.753429-.276.552857-3.793714 1.524.472286-1.284857 2.118 1.324286.543428-.199715-1.671428L267 169.062l2.918571-1.356857-.748285-1.499143 2.34.457714 2.480571-6.548571 2.163429-1.359429L274.656 155.598l2.222571 2.418 2.946858-.569143-.090858-1.375714 1.272858.864857 5.249142-2.830286 5.694-7.734857-5.833714-.394286-3.114857 2.648572-2.247429-.404572 3.188572-2.131714-4.658572.697714 1.536-3.375428 2.118858.687428 1.852285-1.837714-5.223428-.452571 1.629428-.951429-1.938857-1.056 6.719143 1.923429 3.299143 3.506571.876857-2.079428.708 1.728857 1.453714-.561429-2.19-2.023714.250286-2.096572-1.254857.390858.620571-1.390286-1.772571.863143.530571-1.464-3.905143-1.546286-.978 1.571143.043715-1.278857-1.645715.301714 2.549143-.858857-1.432285-1.186286-1.748572 1.531714-1.602857-1.171714 3.264-1.536-3.946286.352286 1.886572-.774857-1.719429-.906857 2.237143.819428 1.556571-1.462286-2.089714-1.631142 2.352857 1.440857.105429-1.236857 2.976.299142-2.725714.246858 3.033428 1.343142 2.461714-1.577142-.48-1.626858-2.294571-.417428.522 1.794857-1.553143-1.549714-.331714-2.391429 3.880286.793714.450857-1.236857-3.023143-.040285-.114857-1.782858-2.520857-.000857 2.376-.577714-3.004286-.948 4.320857.912857-.742286-2.482286-3.457714-.309428 2.158286-1.348286-2.506286.337714-1.808571-1.773428 4.836-1.608857-1.102286-1.994572-3.246857-.133714 1.697143-1.239429-2.268-.702857-.596572 1.592572-.582-1.862572.617143-8.094-1.958571 1.483715-.784286-1.299429 2.930571-2.464286-4.240285.840857 4.447714-2.523428-.586286-3.4834287-3.03.1328571-.160286 2.112L274.8 99.3291429 273.520286 103.914l-.809143-6.1071429-2.670857 3.1448569.534857-2.4248569-5.742857 1.326.846857-1.5291428 4.935428-.5288572 1.894286-2.1977142-3.413143.0394285-.045428-1.5445714-6.411429 2.3717143 1.140857-1.7965714 4.731429-1.1708572-7.270286-.1285714-.497143 3.0162857-2.790857-2.1034286-1.185428 1.2617143 3.020571.9128572.168 1.3868571-3.686571-1.7571429 1.987714 2.2208572-1.645714-.1817143-.023143 1.963714-3.966857-3.3522854.076285 3.6085714-2.070857-1.794-1.251428 1.3131429.698571-2.7908572-3.826286.4568572.940286 3.0274281-.984-2.3502853-1.576286-.0934286-1.484571 2.9202859-.846-1.1014287-.676286 1.7862857.046286-1.596-4.298572 1.997143-.332571 1.189714 2.778.439714-4.082571 3.284572-2.854286-.606857-5.842286 1.744285 1.662857 3.959143 3.462857.558857L231.384 114.036l-2.966571-1.104 2.440285 1.584857-5.241428-1.642286 2.602285 2.726572-2.460857.375428.369429 1.671429 1.884857 1.467429.062571-1.551429 1.382572 1.500857 3.059143-.748286 2.446285 1.611429 3.384 7.872857-2.22 1.599429 1.933715-.420857-1.141715 5.270571 1.397143 2.814-2.112857-.192857 1.318286.6-1.432286 1.763143 1.734857-1.139143-3.030857 2.005714 2.829429 1.59 1.610571-3.9-.282857 2.877429 2.552571.236571-2.445428 1.107429 2.730857.098571-2.244857 1.137429 1.825714-.375429-1.366286.683143 2.053715.698571-1.716-.253714 1.720285 3.393429-3.599142-2.485715-2.974286.066 3.178286 3.268286 3.698571.463714-2.399143 3.606858 2.136857.375428-.981428 1.204286-1.130572-1.252286.245143 2.954572-2.842286-1.031143-2.655428 1.192285 5.229428-.183428-1.509428 1.29 1.889143 1.476857-5.483143-1.994571 2.164286 1.415142-2.098286-.668571-1.551429 2.37 4.551429-1.686857-1.448572.644571 3.949715.257143-7.368857 1.077429 4.555714.982285-4.994572.142286 2.946 1.934572-2.749714.525428 2.050286.884572-2.397429-.338572.847715 1.019143-1.491429.846857 6.422571-3.191143 1.125429.744857-7.219714 2.876572 3.620571.310286-3.349714 1.057714 1.110857 1.962 3.084857-1.674857 1.5.863143-4.839428 1.105714 1.296.165428-1.028572 2.338286 2.243143-.644571-2.263714 1.191428-.124286 2.378572 3.493714-2.19-.318857-2.358 2.214857 4.484571-2.526-1.620857 1.360286 1.02-3.697714.826286 3.686571.662571-3.475714.029143 1.47.722571-1.694572 1.012286 2.373429.370286-1.884.847714 2.437714.554572-2.220857-.045429 2.343429.84-1.090286 2.038286 1.792286-1.149429-1.922572 2.527714 2.309143 1.339715-1.284 1.344 2.208857-.300857-1.800857 1.118571 1.736572-.699429-1.068 1.296858 1.386.458571-1.708286.313714 2.479714.27-2.135143.489429 2.856857.604286.336858 2.560285 6.372857-1.464-2.798572 2.065715 2.25-1.142572-1.704 2.028857 2.064857-.846-.132 1.810286 1.607143-1.467429-1.636285 2.767715 1.983428-1.907143L248.28 197.094m-49.538571-18.432857L196.290857 168.468l1.795714 2.638286.408858-1.941429 4.015714 7.154572 1.434-5.583429.580286 3.051429 1.23-3.383143-1.536-2.126572 1.550571-.177428-.463714-2.264572-1.755429.664286.190286-2.144571-.791143 1.386.894-4.536-2.292.442285 1.211143-2.892 2.202 1.022572-.140572-3.177429 2.139429.894857.372 2.593715 1.536857-.925715-1.667143 1.709143 3.743143-.937714-3.444 2.057143 2.202857 4.999714 2.017715-4.711714 1.020857 2.051143.522-2.703429 1.694571 1.176857-1.241143-1.983428 2.604857.760285-.738857-1.65 1.838572.213429-.719143-2.074286-2.071714 1.404.375428-1.436571-2.139428.214285 2.307428-1.962857-2.127428 1.538572 1.233428-1.309715-2.714571.346286 1.928571-.723428-1.337143-.894858 1.497429.566572-.125143-2.348572-1.603714.355715 1.599428-1.184572-1.912285 1.354286-.018858-1.915714-1.205142 1.498285 1.090285-1.83-1.332857.897429.872572-1.5-1.176858.581143.404572-1.859143-1.622572-.232286 2.471143-.069428-3.760285-3.132857 2.644285 1.076571.136286-1.784571-1.742571.263142 2.097428-.497142-1.238571-1.108286 3.404571 2.089714-.214286-1.538571-4.379142-1.911429 4.982571.873429.486857-1.095429-.626571-1.92-4.586572 1.840286 3.522857-1.659429-2.751428-.123428 4.104857-.981429-1.122-1.732286-2.589429.723429 2.156572-1.326-4.659429 2.535429 1.902857-1.887429-1.529142.036 3.659142-1.791429-4.02.649715 3.766286-1.819715-.956571-2.332285-3.489429 1.645714 2.366572-2.716286L204.996 133.41l1.953429-1.610571-.941143-.550286 2.617714-.768-3.481714-.542572 3.466285-1.662857-2.249142-2.471143-2.198572.600858 1.023429 2.105142-2.071715-1.556571-.043714 2.571429-.215143-4.159715-3.434571 1.495715 3.656571-2.623715 1.731429-4.390285-5.022857-.946286.216857 2.067428-1.916572-1.362857.733715 2.1-1.362857-1.771714-1.430572 4.238571L195.708 122.478l-1.787143.252.434572 2.504571-2.802858 2.283429.677143-1.142571-5.615143-3.224572-1.386857 2.633143.142286 1.680857 2.808.212572-1.153714 2.303142 4.800857 3.734572-.208286-2.61.835714 3.821143.305143-2.198572 3.186 3.156.402-2.439428 1.872857-.828857-1.041428 4.644857 1.624286-.489429-1.309715 1.216286 1.539429.574286-.351429 2.150571-3.163714 1.397143 2.746286-.484286.516 2.909143 1.300285-.199714-1.190571 6.784285-2.743714 1.450286 1.381714 1.136572-1.65-.942858-3.893143 1.278858-.158571 3.766285-4.768286-.964285-2.084571-2.297143-4.175143 3.721714 6.389143 3.250286 1.120285-2.309143.354857 3.327428 1.453715-1.242857L189.252 165.3l2.209714 2.222571-2.203714-.063428.196286 1.728857 9.291428 9.482571-.004285-.009428m40.176-88.4108573l-4.116-.0205714-1.164858 2.4994286-.916285-2.7805715-1.866857.2657143.019714 1.6988572-.834857-1.8668572-3.714-.162 1.025143.9874286-1.496572.3797143L227.994 92.1l-3.192.4114286 3.839143 1.1074285-4.057714-.7328571-.047143 1.5994286 5.064857.2931428-3.24-.0351428-1.335429.5922857 2.841429.1568571.828.6094286-1.824857.3462857 1.780285.4482857L233.835429 95.676l-3.172286 1.1837143 1.638857.8348571-6.235714-.6171428-.871715 3.4465714.212572-3.432-1.506857-1.248-2.437715 5.149714-1.088571-.494571 2.475429 1.288286-2.052858-.087429-.281142 1.296-.760286-2.364-1.928572-.268286-2.766857 1.564286 2.198572.017143-.768 1.069714 2.429143-1.138286-4.020858 3.312858 3.960858-.578572-4.508572 1.467429-.864857-3.714-1.291714 2.937428-4.730572.152572.192857 1.166571 1.555715-1.048286-.985715 1.826572 1.166572-.87-.363429 1.388571 1.170857-.907714-.163714 1.937143 2.16-.714857.132 1.406571 1.040572-1.259143-.267429 1.825715 1.059429-1.689429-.830572 3.217714 3.612.234857 2.047714-1.684285-2.807142-2.455715 1.599428-1.767428 1.569429 2.770286 2.577428-2.020286 1.969715 1.034571-.110572-1.307143 1.959429.359143-.790286-1.331143 1.923429.580286-2.019429-3.306 3.426 1.805143-1.878857-2.444571 4.272 1.177714.242571-1.631143 1.710857 1.469143 1.768286-.997714-1.116857-1.018286 1.638.773143.449143-1.502572.491143 1.028572 6.045428-2.5268574-4.603714-.126 3.432857-.7097143L239.402571 96.84l2.130858 1.0928571 3.142285-.6865714L246.204 96.144l-.597429-2.1111429-3.468857-.2048571 2.052857-.6471429-5.216571-2.9237142-.056571-.0068572M382.481143 215.326286l2.516571-3.573429-.567428-1.117714-3.090857 1.280571 1.344-1.485428-.405429-5.097429-2.360571-1.392-2.948572 1.847143-.054.101143-1.757143-2.952857-.824571-.190286-1.452857.504 1.680857-1.294286-1.152-1.484571-3.921429-.640286-5.726571-4.848-4.527429 1.036286 2.533715-2.076-2.109429.372857 1.446857-1.766571-1.196571-5.413715-5.555143 3.389143.12-6.610286-4.327714 2.106858 1.907142 3.675428-1.793142.592286 2.853428 2.922857-1.047428 2.598 2.938285-1.217143 1.543715 7.256572-.145715-3.03.468-2.217429 1.537715 1.018286-1.191429.321428 2.050286 5.232 1.265143.699429-.585429-1.083429 4.102286-2.568857-.220286 2.827714 2.338286 1.452858.405428-1.227429 1.010572 3.515143 1.545428.351428-3.461143 2.470286L365.22 212.202l1.516286-1.428857 1.215428 1.554-1.960285 4.855714 6.214285-.108 1.705715-3.249428-.299143 3.75-3.126857 1.423714-1.426286 7.079143 5.31-3.319715-.676286-2.386285 8.778857-5.04.009429-.006m-175.56 43.516285l4.681714-3.857142.588 2.410285-1.978286 2.94 2.607429-1.68-.768 2.922 1.607143.328286 2.645143-4.338-.348857-1.550571-1.908858 1.096285 1.788-3.018857-2.767714 3.017143-1.000286-1.929429 1.309715-.836571-1.026-1.101429 3.534-1.103142-4.184572.198 3.172286-4.214572-3.322286-.388286.375429-1.586571-3.564 2.166 1.303714-2.417143-3.336-.001714 2.754-2.320286-2.427428-.222.416571-1.136571-3 2.662285 5.412857-7.139142-.811714-1.563429 1.866.290571-.991714-1.532571-5.832858 3.755143-2.454 6.084857-1.799142-.043714.582857 2.441143-1.464-1.234286-3.660857 2.726571 3.330857.479143-4.535143 2.290286.389143 1.856571 3.117428-.516 4.605429 2.328857 4.078286-1.545428-1.687715 2.334857 5.074286-.196286-5.138571 2.888572 2.762571.258.005143-.001715m-49.465714-153.825428l-2.316 1.694571 3.818571 4.189715 5.176286.678-1.559143 3.228857 3.306 3.306 1.746857-2.017715-2.544857.243429 2.346-2.063143.070286 1.447714 2.676857.045429-.734572 1.270286 2.214857-1.545429.9-5.823428 7.550572-5.427429 1.248-2.498571-1.444286-1.028572-6.971143 4.254L178.086 99.66l-.488571-.7371429-1.992858 2.1411429.187715-1.2291429-1.552286.3522859-.548571-.989143 2.560285-.18.509143-2.094-2.765143-.7851429 3.880286-1.5857142-5.683714-2.1745715-3.774.7234286-.046286 1.6208571-1.505143.0205715 1.903714 3.0462857-3.637714-2.4685714-1.765714 1.5137142 2.050286 3.9925719-.520286 3.398571-4.26-5.832-2.668286 2.310857-.511714 4.310572-.001714.001714M312.336 172.196571l3.421714-3.244285 1.206857-3.805715-1.35-.191142 1.381715-.652286-5.427429-3.528857.697714-1.584-1.215428 1.472571-2.271429-1.243714.140572 2.232-3.486857.468857 1.374 2.263714-2.421429-2.088857-.416571 2.457429-2.650286-1.201715.105428 4.539429-1.789714-3.771429-4.266857-1.176857 2.273143 2.448-2.624572-1.254 1.147715 2.299715-1.905429-.265715 1.032 1.131429-1.535143.432857 5.982857-.941143-1.528285 1.632857 1.916571.39-4.561714 1.574572 6.463714 1.161428-2.082 3.329143 3.412286-1.411714 5.947714 1.349143 3.029143-2.821715m46.418571 48.056572l3.704572-3.686572-4.334572-8.143714 1.332-3.234857-3.562285-2.635714-2.414572 2.259428.449143-1.473428-1.504286-.181715.358286 2.186572-1.504286-.858857-.93 3.286285 1.905429-.474-.063429 2.455715-4.266 1.463143 2.436 1.513714-.871714 2.488286 3.945429-.385715-1.506 4.176 3.197143-1.750285-3.702858 3.715714 1.842858-.247714-1.158 2.160857 2.294571-1.068857-1.146 1.928571 1.737429-1.303714L354.696 224.136l4.054286-3.875143.004285-.007714M199.216286 108.654l.071143 2.935714 2.734285-.238285-.929143 2.011714 4.346572 2.363143 1.334571-1.183715.293143 2.549143 3.917143-.083143-.649714-1.023428 2.249143-1.111714-.839143-2.316858-6.218572-1.395428-.735428-2.411143-1.120286.699429 1.387714-2.429143-1.770857-.223715 1.773429-.108-.325715-1.501714 1.809429 1.580572-.946286-2.050286 1.173429-.288-2.995714-.823714 2.075142-1.606286-1.818-2.1265716-2.235428 2.9785716 2.216571 1.120286-4.768285 4.656857-.029143.025714M185.352 90.4731429l2.881714.3651428-2.014285.9034286 2.249142 1.9105714-4.172571-1.6508571-.488571 2.3177143L188.530286 95.904l1.351714 2.2894286 4.013143-1.4382857.408857-1.35-2.092286.7465714.067715-1.1957143 4.415142-3.0497143-2.800285.0145714-3.486857 3.0205715-.872572-1.9294286 3.527143-4.7845714-1.448571-.3591429-.188572 1.2-1.962-1.1845714.574286 1.5617143-2.316-1.3971429 1.268571 1.5814286-3.025714-1.3842857-.621429 2.2225714.009429.0051429m28.785429 5.466l-.204858 2.5165714-1.221428-.4431429-.506572 1.2694286 1.534286 1.536 1.482857-1.614-1.060285 1.942286 3.744857-2.1780003-.972857 1.3208573 4.221428-.6402859.726857-1.4357142L220.428 97.71l3.213429-2.6442857-1.691143.6454286 2.478857-5.7325715-3.330857.5931429-.381429 1.5265714-2.134286-.876-.45 2.0082857-.460285-1.524-1.126286.6925715.738 1.4134285-2.531143.9017143 2.719714 2.484-3.325714-1.2617143-.009428.0025715M316.146 100.685143l2.742857.114857-6.695143-6.0205714-.161143-2.2371429-5.486571-.3308571.828.9651428-3.729429-1.0534285 5.081143 2.8251428-4.734857-1.38 1.818857 1.7348572-2.279143-.0205715-.406285-1.5034285-.453429 2.3991428 6.876857 2.5842857-1.255714-3.0351428 1.702286 1.0037143-.434572-1.3148572 1.702286.2802857-.722571 3.1474286 1.633714.7482857L313.180286 97.236l-.232286 2.0708571 1.687714-.2845714-1.691143 1.1262853 3.201429.536572m26.261143-29.2294287l-2.703429-.3034286.422572-.7602857-4.943143-2.2868571-6.772286-5.8054286-3.665143-.0685714 4.380857 2.8405714 1.221429 2.8448571 6.520286 4.7502857L339.3 72.1834286l2.494286 1.974.912-.9908572-.551143 1.1297143 1.979143 1.5582857.465428-1.9002857 1.728857 1.9465714.134572-2.4377142-2.409429-.0788572.318-1.0688571-1.061143.7594285.340286-1.11L341.592 72.024l.815143-.5648571v-.0034286M98.7891429 370.232571l3.8074281-.020571-5.8791424-4.901143.5502857-2.032286L92.778 360.214286l-9.066-13.172572-4.548-4.125428-10.9097143-3.767143-1.8728571 2.750571-2.5097143-.862285 3.2237143 1.841142 5.5868571-.96 3.1594286 1.988572.5262857 1.319143-1.9697143-.620572.9805714 1.768286L86.022 355.051714l1.2891429 5.307429 3.3917142 2.174571.1474286 1.688572-2.9914286 1.217143 10.9302858 4.793142m14.1900001 15.714l2.405143-1.242 8.574 4.248 1.71-1.404-5.258572-4.267714 2.234572-.309428-2.560286-.830572-.589714-2.234571-11.777143-6.006-2.874.151714 2.908286 2.410286-.894858 1.766571 1.494858 3.182572-7.591715-3.924858-1.3285711.684858 2.0948571 2.970857 7.827429 2.184857 2.124 4.027714 1.499142-1.404857.002572-.003429M238.352571.82371429L241.327714.618l-2.304857.15685714-2.438571.186 1.205143-.09428571 8.268857-.51514286 3.399428-.14485714-3.138857.13285714-3.419143.18171429 7.231715-.228 2.199428.72771428 1.366286-.08828571L251.940857.762l3.110572-.18685714L255.370286.294l-2.203715-.14314286-14.804571.672-.009429.00085715m-56.574 113.81399971l4.614-2.588571-.560571-2.378572 4.360286-.876-2.547429-3.392571-1.582286 1.534286-.477428-1.242857.109714 2.329714-2.135143.846-.186857-2.617714-2.1.664285-3.112286 6.896572 1.205143.738 1.954286-1.425429-1.022571.768 1.461428.751714.019714-.006857m-9.218571 44.886l2.558571-.534-.312-2.164285-2.279142-.462 2.07-2.118858-1.308-6.256285-1.508572.621428 1.321714-3.344571-7.115142 6.370286-3.317143.906857 2.847428 1.075714-1.252285 2.873143 7.191428-1.945714L170.646 157.146l1.893429 2.376857.020571.000857M359.301429 78.618l-.510858-3.9685714-5.394 1.4957143-3.353142-.528-3.078858-1.9097143-.270857 1.5651428.702 1.6645715 1.266857-.1517143.971143 1.4177143.259715-1.2214286 4.189714 3.186 1.848857-.0925714-.561429-1.7957143 3.914572.3471428.016286-.0085714M111.464571 64.3131429l.099429.5245714-1.313143.0205714.765429 1.6294286 1.214571-.7388572-1.066286 1.146 1.649143-.4208571 1.739143-1.7794286-1.290857.036 1.391143-.8211428L111.99 64.872l2.245714-1.7674286-.839143-.1731428-1.928571 1.3791428-.003429.0025715m197.322858 22.5591428l-2.685429.3214286.439714 1.4194286-1.954285-.7345715L306.81 89.328l-3.545143.0908571 1.619143.8957143-.809143.9274286 2.304.5091429.962572-1.7554286.834857 1.6688571 2.859428-1.3311428-2.238857-3.4611429h-.009428M193.261714 102.993429l1.584 1.426285 2.107715-.520285 4.710857-4.3242861-1.631143.3925714-.691714-1.6045714-2.124858 2.3674281 1.343143-2.858571-2.246571 2.297143-2.004857-.9582859 2.292857 2.2002859-2.226857.042857-1.144286 1.512.031714.027429m-24.089143-11.5500004l9.172286 2.0048571 2.690572-3.4174286-1.692-.9068571 2.228571-3.006-1.585714-2.6374286-2.852572 1.7571429-9.21.414.099429 1.1528571-4.026857 3.3111429 2.614285 1.9217143 2.548286-.6017143.013714.0077143M64.3122857 136.104857L65.562 137.236286l-2.1882857.922285-.402 4.846286 6.7165714-10.138286L70.974 125.28l-1.3491429 1.720286.7431429.911143-2.0477143.240857.2485714 1.686857-4.254 6.265714h-.0025714m24.33-29.033143l-1.3577143 1.464 2.4488572-1.218.504-1.637143.4054285.900858 4.0662858-4.652572-3.264 1.943143-.0222858.866571-1.4057142.129429-1.3782858 2.201143.0034286.002571m-9.0051428 5.617715l.9094285.198857.5777143-1.662857 3.9385714-.815143-2.4994285-.270857 1.8702857-.407143.8348571-2.169429-4.7168571 3.482572-3.9788572 5.301428L79.62 112.699714l.0171429-.010285M263.316857 27.7962857l-7.638.1748572 1.792286 1.824-1.496572-1.5025715-2.487428 1.128 5.357143 1.3602857.984-1.3388571 2.262 1.3954286 2.404285-1.3551429-1.177714-1.6825714v-.0034286M189.818571 260.694l-1.070571-2.096571-2.508857 2.704285-1.299429-.236571 3.324857-2.320286.996858-3.763714-5.196858 4.089428.215143 2.706 5.533715-1.062857.005142-.019714M196.998 85.122l-1.158857-1.3954286-7.546286-.6042857 1.695429.99L188.533714 85.5l5.215715-.012-2.395715 1.4468571 5.478-.4285714.173143-1.3868571L196.998 85.122m-4.506 40.981714l1.205143-3.27 2.404286-2.629714 5.262-2.546571-1.353429-1.542858-5.091429.392572-7.441714 5.038286 2.461714 3.244285 2.55 1.311429.003429.002571m203.531143 53.867143l-.618-3.500571-2.530286-1.580572 1.233429 2.233715-1.667143-.848572-.890572 2.278286 6.055715 3.108857-1.580572-1.693714-.002571.002571M300.424286 47.9082857l-2.762572-1.848L294.629143 47.622l.027428.9994286 1.535143.0334285-1.125428.5562858 5.360571 1.0062857.000857-2.3065715-.003428-.0025714M206.688 96.0994286l3.392571-3.0925715L210.078 88.98l-2.327143 1.4288571.465429 1.1322858-2.681143.3702857 1.38.7165714-.228857 3.4791429.001714-.0077143m-106.479429.9548571l2.236286-2.4591428-1.224 1.9045714L102.364286 96.21l1.190571-2.8225714-3.8254284 2.4462857 1.6800004-.7028572-1.197429 1.9182858-.003429.0051428m84.349715 18.6145713l3.304285-.131143.568286-1.713428 1.905429 1.856571 6.389143-2.288571-4.159715-4.016572-8.030571 6.284572.023143.008571m133.805143-22.0234284l-3.445715-.7362857-.388285 1.5625714 3.039428 1.6251428.069429-1.4528571 1.812857.7748571-1.086-1.7777142-.001714.0042857M152.456571 192.522857l2.142858.223714-.654.858 2.258571-1.981714-1.531714 1.234286 1.488857-2.650286-3.713143 2.317714.008571-.001714M238.782 150.555429l-1.597714-3.251143-2.588572-.473143-.754285 2.739428 2.565428.519429-1.268571 1.285714 3.634285-.812571.009429-.007714m244.049143 85.025142l2.483143-3.504857-.575143-1.716-.309429 2.110286-5.448857 3.368571 1.054286 1.656 2.793428-1.915714.002572.001714M27.2665714 425.196l.9008572-.246857-1.926-5.207143-.7628572.087429 1.7228572 3.792857-1.422.001714 1.4854285 1.573714.0017143-.001714M138.639429 574.037143l1.161428.464571-2.832-1.518857-1.651714-.710571.462857.321428 1.233429.72 1.620857.721715.005143.001714M92.166 106.871143l-1.6525714.354-.228.809143 1.0654285-.361715-1.5968571.622286.4225714.66L92.166 106.871143m208.242857-62.5302859l-5.913428-1.2282857-.701143 1.8968572 2.237143-.126L294.139714 46.002l6.283715-1.6611429h-.014572M298.23 50.5371429L295.125429 49.452l-2.068286.438-.705429 2.0408571 6.260572-.036-.384857-1.3568571.002571-.0008571M96.7791429 336.950571l.6394285 1.083429 1.572-3.058286-1.5788571-2.787428 1.1545714 2.658857-1.7871428 2.088v.015428m338.2817141-82.168285l2.400857-3.683143-2.642571-5.893714-3.450857-2.099143-1.915715 3.449143 5.615143 8.238-.006857-.011143m-255.561428 3.323143l3.738857-1.474286-6.57-1.879714.775714-2.972572-1.959429 1.841143 4.008858 4.467429.006.018M88.7117143 376.177714l3.3325714 1.218-2.3708571-3.668571-5.7505715-2.563714 1.8677143 3.528857 2.9202857 1.482857.0008572.002571M117.986571 46.2488571l.366.7834286 1.299429-1.1665714-1.554.6051428.947143-1.458-1.056857 1.2317143-.001715.0042857M496.811143 216.038571l.222857-4.377428-1.094571-.674572-.486858-3.48-1.092 8.340858 2.449715.196285.000857-.005143M154.728857 436.776857l.534857-3.117428-3.552857-.286286.87 2.129143-2.351143.526285 4.499143.736286v.012m-61.0954284-90.536571l-1.0551429-.601715.9248572-1.086-1.1768572.288858.5897143 2.112857.7251429-.710572-.0077143-.003428M204.032571 123.337714l.112286 1.457143 4.393714 1.539429.432858-3.378857-3.253715-2.761715-1.680857 3.141429-.004286.002571m165.356572-36.2674283l-1.806-2.1454286-1.985143.6977143 1.992857 1.8222857 1.799143-.3685714v-.006M186.954857 243.477429l.882-1.050858-2.203714-2.437714-5.291143-2.680286 6.606857 6.171429.006-.002571m287.077714-27.835715l.478286-.862285-1.491428-.829715-.468 1.706572 1.480285-.015429.000857.000857m-373.854 128.359715l-.4817139 1.878.7911429-2.43-1.8128571-3.186858 1.5077141 3.735429-.004286.003429m55.344-304.5111433l-.155142 1.0311429 6.322285-3.4122857-1.480285-.0865715-4.693715 2.4677143h.006857M97.5591429 99.9805714l-2.5114286 1.7219996.0394286.883715 1.9817142-.72.5057143-1.9054289-.0154285.0197143M135.48 393.929143l2.001429-1.426286-7.377429-2.223428.011143 2.16 5.361428 1.491428.003429-.001714m255.128571-213.276857l1.299429 1.686 1.683429-.875143-2.088-2.057143-.891429 1.239429-.003429.006857m83.150572 43.540285l-2.337429-2.086285-2.650285.407143-.359143 1.795714 5.341714-.109714.005143-.006858m-126.507429-33.204857l.636857 1.024286.653143-1.446857-.930857-2.803714-.355714 3.224571-.003429.001714m4.153715-63.623143l-.426858-3.361714.190286 1.74-1.683428-1.118571 1.912285 2.738571.007715.001714M92.2577143 343.822286L93.6694286 342.54l-1.0311429-3.334286-1.7434286 2.428286 1.3594286 2.187429.0034286.000857M285.481714 136.716l3.288857.813429-2.532857-2.622858-2.051143.345429 1.287429 1.464857.007714-.000857M78.7911429 119.234571l.6111428.104572-1.6834286 1.586571 3.63-3.276857L78.792 119.232v.002571m-8.6288571 227.916858l1.824.51-.1697143-1.796572-1.0225715-.901714-.6557142 2.173714.024.014572M341.940857 60.0214286L340.296 59.778l.816857 1.1125714 1.832572.0762857L341.946 60.03l-.005143-.0085714M181.024286 104.027143l3.064285-1.032857-.729428-2.058857-1.359429.176571-.999428 2.900571.024.014572m69.887143-75.5340001l-2.740286-.3274286-2.269714 1.1391428 6.237428.4217143-1.226571-1.2308571-.000857-.0025714m5.123142-4.1502858l-.711428.5657143 2.244857.8682857 3.312-1.0945714-4.838571-.3394286h-.006858M418.857429 263.492571l.499714-2.706857-1.340572-.680571-1.721142 3.242571 2.562.147429v-.002572m11.353714-20.905714l-.297429-3.928286-2.732571-3.754285-.500572 4.554 3.530572 3.128571M168.064286 121.29l.580285 4.006286 3.173143.056571 1.377429-6.024857-5.136857 1.958571.006.003429M99.3977143 99.1174286l3.3179997-1.758L104.01 95.5097143l-6.2322857 3.2631428 1.6191428.348.0008572-.0034285M457.598571 251.335714l-2.574-8.256857-6.978 7.882286L449.628 252.606l7.966286-1.266857.004285-.003429M138.671143 44.7882857l2.404286-.8091428 1.2-1.6988572-3.679715 1.8342857.072857.6745715.002572-.0008572m-22.069714 5.3931429l-1.266858 1.3637143 2.405143-1.3825715.182572-1.4374285-1.318286 1.4537142-.002571.0025715M195.9 146.059714l-1.71-2.218285-3.432 3.805714 2.928.798857 2.182286-2.366571.031714-.019715m-28.680857 13.784572l-2.904857.552-.653143 1.567714 5.745428-1.184571-2.181428-.936-.006.000857m-12.804857 249.164571l2.153143-.672-1.225715-1.62-1.686857.542572.758572 1.752857.000857-.003429m47.160857-319.9311427l-1.071429-2.1265714-1.973143.7028571.247715 1.83 2.785714-.4131429.011143.0068572m98.272286-38.7214286l-1.378286.0222857 1.188857 1.4348572 1.303714-.6797143-1.11-.7714286-.004285-.006M208.362 97.9431429l2.82-.7122858-.034286-2.9485714-3.209143 2.208.400286 1.4417143.023143.0111429M553.816286 359.370857l.061714-.800571-.342 2.089714.137143.156.142286-1.442571.000857-.002572M362.984571 72.828l-1.198285-.6925714-1.890857 1.4828571 2.087142.4525714 1.002-1.2428571M397.614 148.890857l-.289714.932572 1.469143.089142.185142-1.372285-1.364571.350571M139.066286 46.5462857L140.417143 45.84l-.020572-.9128571-1.206857.5828571-.123428 1.0362857M352.956 196.224857l-.014571 1.764 1.290857-1.238571-1.272-.526286-.004286.000857M202.276286 86.4205714l2.287714 2.052.821143-1.4648571-3.111429-.5982857.002572.0111428m83.804571 47.3331426l-2.803714-.999428-1.367143 1.292571 4.165714-.292286.005143-.000857m240.96 44.879143l-.684-1.629428 1.402286 4.369714-.715714-2.727429-.002572-.012857m18.09 91.819714l.415714-1.206857-.859714.196286.440572 1.023429.003428-.012858m-109.374857-52.77l-1.099714-.211714 2.260285.732857-1.158857-.521143H435.756M10.32 239.289429l-.2202857 1.636285L11.118 239.060571l-.7954286.226286-.0025714.002572m340.935429-46.212858l-2.302286-.849428 2.898 2.034-.593143-1.183714-.002571-.000858m46.025142-28.289142l2.309143 3.630857-3.138857-5.482286.828857 1.845429.000857.006m-46.977428-38.34l-1.579714-1.584858.476571 1.871143 1.098-.287143.005143.000858m-43.360286-27.5271433l2.061429.2837143-3.875143-1.1194286 1.809428.834.004286.0017143M465.459429 232.922571l1.206857-.761142-1.555715-.955715.344572 1.681715.004286.035142M144.684 576.712286l-.874286-.383143-.941143-.384857 1.812858.767143.002571.000857M105.515143 360.018l.003428.008571.829715-1.149428-2.317715 1.954286 1.484572-.813429m11.893714-287.8422857l1.443429.0162857-1.993715-.6128571.544286.5991428.006-.0025714m194.290286 3.1105714l-1.872857-2.5328571-2.073429-.1611429 3.946286 2.6965714v-.0025714M87.9925714 106.326857l-.7217143.975429 2.3065715-1.933715-1.578.948858-.0068572.009428m313.1674286 46.95l-.451714-3.87-1.937143 2.208 2.37 1.662857.018857-.000857M114.088286 65.3914286l.514285 1.0988571 1.192286-1.5291428L114.096 65.388l-.007714.0034286m84.456-31.6868572L195.288 36.7448571l3.952286-1.2505714-.696-1.7905714v.0008571M365.378571 348.485143l1.784572-3.568286-3.071143 2.024572 1.279714 1.538571.006857.005143m-15.499714-227.803714l-1.136571.055714 1.543714 2.392286-.406286-2.445429-.000857-.002571m-141.402 369.467142l1.797429-1.453714-3.845143.089143 2.039143 1.364571h.008571m-8.595428-308.262l1.156285-.977142-1.708285-.447429.548571 1.423714.003429.000857M209.791714 25.764l.002572.6557143 2.321143-.5511429-2.321143-.1062857-.002572.0017143m-76.410857 245.588571l4.724572 1.416858 2.008285-1.218858-6.729428-.200571-.003429.002571m62.342572-165.873428L196.848 108.684l3.065143-3.487714-4.177714.283714-.012-.000857m-99.6685719-4.848857l1.3062858-1.0688574-4.1014286 2.1274284 2.7968571-1.062-.0017143.003429m.6857143-2.0597146l-2.676 1.8034286 6.3145716-4.1305714-3.6394287 2.322.0008571.0051428m87.3599996-85.9071428l2.321143-.504-3.654.6985714 1.327715-.1937143.005142-.0008571M552.943714 237.807429l-.466285-2.672572.45 4.111714.017142-1.434-.000857-.005142m-176.496 106.312285l-.107143-2.874857-1.817142 4.228286 1.920857-1.352572.003428-.000857M178.578857 136.35l-.587143 1.242 1.929429-2.182286-1.330286.921429-.012.018857m-3.579428 11.063143l1.128857.980571-.515143-2.884285-.616286 1.890857.002572.012857M139.674 202.656l2.320286 3.198857.384-2.832-2.705143-.369428.000857.002571m-68.436 94.682571h-.0017143l-.9788571-.516 2.5448571 1.383429-1.5642857-.867429m414.235714-73.758l-.84-2.613428.018 2.557714.822857.060857-.000857-.005143M188.200286 87.1731429l2.106857-.4028572-3.028286-.5631428.921429.9634285v.0025715M207.846 4.76914286l.271714.01114285 1.867715-.43457142-2.118.42-.021429.00342857M484.594286 414.307714l.928285-.044571.698572-2.830286-1.627714 2.868.000857.006857M288.672 124.553143l1.731429-.574286-1.625143-1.416-.107143 1.989429.000857.000857m21.350571-55.0748573l1.691143-.3865714-1.339714-.8734286-.36 1.2668572.008571-.0068572M67.5334286 459.298286l.8185714-.563143-1.2797143-.693429.4542857 1.259143.0068572-.002571M107.427429 368.382l.882-1.398-3.132858.342857 2.247429 1.056857.003429-.001714m33.21 60.672l-1.776858-.410571 2.984572.733714-1.181143-.336857-.026571.013714M298.556571 32.796l-.440571-.8674286-1.526571.3008572 1.954285.5631428.012857.0034286M377.736 339.503143l-.229714-1.204286-1.227429 2.422286 1.458-1.213714-.000857-.004286M177.042 163.752857l1.546286-.963428-1.622572-.87.072857 1.83.003429.003428m164.727429 255.580286l1.398857-.246-1.654286-1.326.265714 1.560857-.010285.011143M254.909143 96.5254286l1.588286 2.3408571.125142-1.77-1.678285-.5982857-.035143.0274286M105.973714 378.604286l-1.233428-.681429 1.836 1.916572-.595715-1.232572-.006857-.002571M314.205429 94.152l-1.486286-1.3877143-.179143 1.2145714 1.657714.1731429h.007715m-120.925715 42.029143l1.484572-.48-2.216572-.623143.732 1.122857v-.019714m-24.047143 31.390286l2.177143-.518572.624-1.961143-2.796 2.464286-.005143.015429m-50.808857 248.602285l.001715.002572 1.096285 1.218L117.834 415.14l.589714 1.033714m252.536572-69.281143l-1.486286-.461142-.350571 1.466571 1.834285-1.000286.002572-.005143M266.600571 1.14342857L267.642 1.326l1.276286-.162-2.320286-.02142857.002571.00085714M177.120857 31.3868571L177 31.4571429l-.983143.7482857L178.35 30.7302857l-1.229143.6565714m24.174857 62.0948572L202.510286 92.052l-2.434286 2.28 1.230857-.84-.011143-.0102857m108.555429-25.65l-2.667429-1.1168572.716572 1.2488572 1.971428-.1182857-.020571-.0137143M143.054571 26.8525714l-1.521428.6805715 2.844-1.242-1.309714.5545714-.012858.0068571m66.000858 72.6291429l-2.079429-.9882857 1.118571 2.0922854.956572-1.0911426.004286-.0128571m-11.021143 47.4788567l-1.572857-.719142 1.548857 1.959428.031714-1.228286-.007714-.012m280.004571 284.909143l.216857.736286.861429-1.698-1.078286.958286v.003428m-192.319714-303.3l2.675143-.277714-1.755429-.758571-.917143 1.032857-.002571.003428M211.005429 102.33l-.790286-.777429-.828 1.613143 1.620857-.821143-.002571-.014571m190.794857 77.730857l-1.105715-1.093714-.111428 1.583143 1.217143-.489429M198.036 11.6082857l-2.043429 1.2171429 2.424858-.7457143-.381429-.4714286m83.718 134.7685713l4.045714-1.429714-1.249714-1.796572-2.796 3.226286m3.092571-11.550857l3.465429.171429-1.357714-1.044-2.107715.872571M136.211143 30.8202857l-.552.4688572 1.552286-.8417143-1.000286.3728571m263.232 131.8045713l-2.287714-4.632857.135428 2.791714 2.152286 1.841143M82.692 114.942l-1.7845714 2.018571L83.868 113.869714 82.692 114.942m5.8431429 237.358286l.8622857 1.057714-.8588572-1.070571-.0034285.012857M349.134857 124.640571l-.612857-1.711714.606857 1.704857.006.006857m-182.228571-5.257714l-1.016572 1.168286 1.023429-1.168286h-.006857m186.930857 81.450857l.392571-1.544571-.405428 1.521428.012857.023143M10.1014286 234.236571l-.63771431 3.251143.64285711-3.252857-.0051428.001714m308.3468574 72.354l2.944285-.024857-2.944285.020572v.004285m123.935143-86.626285l1.043142-.995143-1.048285.988286.005143.006857m-343.3911433 130.956l1.1254283 1.417714-1.1219997-1.420286-.0034286.002572M135.462857 31.2377143l-.996.816 1.002-.8177143-.006.0017143M336.423429 171.537429l1.344.96-1.340572-.960858-.003428.000858m13.504285-63.212572l-1.081714.388286 1.08-.385714.001714-.002572m-42.042857-42.1242856l-2.847428-.9531428 2.844.9565714.003428-.0034286M4.52742857 234.715714l.81685714-.697714-.81685714.697714M309.447429 76.0431429L309.27 73.9148571l.176571 2.1308572.000858-.0025714m-103.224 411.8082861l.073714 1.163142-.073714-1.179428v.016286m-7.998-301.359429l.926571.948857-.923143-.957428-.003428.008571m7.048285-14.328857l.318 1.788-.316285-1.791429-.001715.003429m143.861143-54.806572l-.549428 1.195715.552-1.194857-.002572-.000858M114.057429 54.7174286l-1.234286.7371428 1.237714-.738-.003428.0008572m88.038 122.3391424l1.395428.287143-1.391143-.298285-.004285.011142m218.291142 81.828858l-.006857.004285 1.068-.370285-1.061143.366m-344.4059996-135.726l-.0034285-.000858-.882.216.8854285-.215142m114.7954286 61.59l.095143-1.501715-.098572 1.5.003429.001715m160.386-57.594858l-.001714.001715-.103715 1.439143.105429-1.440858M62.6648571 412.433143v.007714l.3865715 1.292572-.3865715-1.300286M179.768571 163.412571l.089143-1.438285-.095143 1.441714.006-.003429m173.683715 18.983143l.990857 1.018286-.997714-1.030286.006857.012m-153.972857 24.921429l1.287428.589714-1.284857-.591428-.002571.001714M256.146 180.580286l1.806 1.253143-1.806-1.256572v.003429m-100.005429 239.676l.474858-1.590857-.498 1.580571.023142.010286m288.502286-200.069143l.008572-.008572-.81.728572.801428-.72m94.182-26.897143l-.993428-2.441143.981428 2.417143.012.024M307.570286 44.94l-1.223143-.0514286 1.226571.054-.003428-.0025714m85.656857 100.566l-.250286-1.741714.227143 1.722.023143.019714m-85.591714-75.0882857l.001714.0102857.653143-1.4717143-.654857 1.4614286m-2.459143-1.158l1.074857.7748571-1.074857-.7774285v.0025714M243.487714 192.918857l1.368-.666-1.367143.661714-.000857.004286m109.464857-19.998l.336858 1.073143-.33-1.076571-.006858.003428M220.941429 575.777143l.63-.696-.63.696M52.1194286 362.704286l-.0051429-.003429-.9814286-.037714.9865715.041143m-23.1925715 62.331428l1.272.775715-1.2694285-.777429-.0025715.001714M341.514 54.4688571l-.001714-.0025714-1.470857-1.1785714 1.472571 1.1811428m-15.862286-2.7762857l-1.512857.1671429 1.509429-.1602857.003428-.0068572M67.5651429 136.254l-.8365715 1.839429.8425715-1.844572-.006.005143m393.7697141 92.383714l-1.813714-.931714 1.806857.929143.006857.002571M54.9805714 342.962571l1.1254286-.085714-1.122.083143-.0034286.002571M464.824286 230.905714l-.460286-1.611428.457714 1.608.002572.003428m-78.480857-81.120857l1.084285.375429-1.086-.381429.001715.006m-48.596572 23.031429l-1.692857-.959143 1.692857.959143m16.658572 26.104285l.001714-.002571.339428-1.027714-.341142 1.030285m-161.921143-59.975142l2.625428-.724286-2.619428.714-.006.010286m179.096571-77.3245719l-1.257428-.7122857 1.247142.7191429.010286-.0068572M47.8208571 355.175143l.8751429-.876-.8717143.861428-.0034286.014572m-1.8394285-70.585714l-.006.003428 1.062-.105428-1.056.102M118.395429 72.9874286l-.192858.8065714.198858-.804-.006-.0025714m-20.3991433 23.718l1.512-.6308572-1.5154286.6291429.0034286.0017143M124.002 282.550286l1.262571-1.289143-1.266 1.285714.003429.003429m30.687429 128.788285l.854571 1.613143-.852-1.639714-.002571.026571m-50.133429-53.772l1.255714 1.128-1.253143-1.140857-.002571.012857M152.482286 35.214l.008571-.006-1.952571.9617143 1.944-.9557143m185.727428 139.422l1.273715.758571-1.273715-.758571m-50.982857-54.229714l.002572.000857-2.096572-2.715429 2.094 2.714572m50.479714 291.836571l2.049429-.081428-2.050286.069428.000857.012m55.145143-228.801428l-1.334571-.365143 1.331143.367714.003428-.002571m-242.622857 14.178l1.851429.365142-1.841143-.367714-.010286.002572m-57.2982856-92.290286l-.0034285.005143 1.5257142-1.334572-1.5222857 1.329429m437.2748576 92.073428l-.533143-.369428.539143.378-.006-.008572m-514.2840004 3.002572L15.864 199.221429l.0557143 1.173428.0017143.010286M350.502857 113.046l-.797143-1.354286.792857 1.358572.004286-.004286m82.579714 103.806857l1.371429 1.501714-1.369714-1.503428-.001715.001714m-76.024285-78.906l-.427715-1.046571.414858 1.035428.012857.011143m108.970285 80.521714l.906858-.537428-.911143.535714.004285.001714m9.463715 5.188286l-1.104-.024857 1.116.041143-.012-.016286m-187.931143-97.653428l-1.034572-1.122 1.033715 1.124571.000857-.002571M38.9245714 284.936571l1.8274286-.36-1.8257143.356572-.0017143.003428M139.163143 574.335429l1.050857.462857-1.052571-.462857h.001714M110.466857 65.7625714l.247714.4937143-.247714-.4954286v.0017143M466.951714 233.642571l1.211143-.192-1.213714.188572.002571.003428M88.5591429 108.669429h-.0008572l1.2308572-.578572-1.23.578572m67.9345711 307.849714l.014572.005143-.852-1.703143.837428 1.698m-126.5725711-118.104l1.1631428-1.645714-1.158 1.631142-.0051428.014572m281.3854281-161.196l.705429-1.922572-.724286 1.929429.018857-.006857M157.212857 432.258l-.040286-.009429-1.356857.122572 1.397143-.113143m50.234572 55.170857l-.45.955714.471428-.953142-.021428-.002572M102.466286 355.741714l-.841715-3.981428.840858 3.978857.000857.002571m442.665428-96.015428l-.483428-.060857.484285.066857-.000857-.006M1.00628571 258.786l-.03771428 1.794857L1.008 258.788571l-.00171429-.002571M476.076 219.707143l-1.315714-1.820572 1.306285 1.817143.009429.003429M181.236 13.488l-2.365714.5425714 2.370857-.5417143L181.236 13.488m165.580286 179.660571l1.055143-.660857-1.056858.656572.001715.004285M139.356 272.166857l1.852286.335143-1.855715-.336.003429.000857m68.979429-135.487714l1.442571-.440572-1.442571.440572M87.3128571 350.898l1.5 1.359429-1.4991428-1.363715-.0008572.004286M359.853429 150.959143l.624-1.093714-.629143 1.087714.005143.006M211.758 490.267714l-2.415429.123429 2.419715-.122572-.004286-.000857m203.547429-222.782571l-.810858 1.209428.813429-1.211142-.002571.001714M371.998286 61.6697143l-.004286-.006.233143.8357143-.228857-.8297143m-257.837143 3.5271428l.783428-.7722857-.783428.7722857M362.076857 206.419714l.204857-2.123143-.211714 2.111143.006857.012m-3.007714 139.668857l1.019143 1.433143-1.014857-1.440857-.004286.007714M523.968 241.006286l.593143-.375429-.602572.359143.009429.016286m9.771429-46.190572l-.142286-1.128.137143 1.119429.005143.008571M111.768 56.1994286l.683143.1808571-.677143-.1825714-.006.0017143M67.3817143 131.070857l-.9488572 1.312286.9497143-1.308857-.0008571-.003429m60.6325717-94.7031427l.000857-.0017143-2.333143 1.5762857 2.332286-1.5745714m-8.881715 256.5831427l-1.780285 2.526 1.795714-2.518286-.015429-.007714m214.121143 118.26l1.663715-.841714-1.664572.834.000857.007714M183.534857 169.248l.007714.002571-1.145142-.721714 1.137428.719143m19.794 320.460857l2.007429.270857-2.005715-.271714-.001714.000857m351.262286-135.245143l-.168 1.671429.169714-1.681714-.001714.010285M64.7442857 140.838l-.8357143.928286.8417143-.933429-.006.005143M236.855143 503.998286l.200571-1.030286-.204857 1.032857.004286-.002571m-85.172572-76.619143l.895715-.834857-.895715.829714v.005143M55.0388571 289.672286l.7525715.869143-.7482857-.87-.0042858.000857m306.0625719-139.416l-.002572.001714-.636857 1.429714.639429-1.431428M90.2202857 107.277429l-1.086.805714 1.0894286-.807429-.0034286.001715M199.232571 86.7505714l1.664572-.8614285-1.666286.8468571.001714.0145714M457.788857 256.041429l.975429.125142-.979715-.132.004286.006858M239.511429 567.206571l1.374857.042-1.375715-.054857.000858.012857m72.312857-495.3522853l-1.258286-.312 1.259143.318-.000857-.006M210.508286 245.856l1.316571-.240857L210.51 245.844l-.001714.012m-36.057429-100.230857l-1.277143 1.925143 1.280572-1.920857-.003429-.004286M93.744 105.302571l1.3482857-1.358571-1.3585714 1.364571.0102857-.006m388.082571 117.551143l.001715.003429.207428-1.375714-.209143 1.372285m-2.778857-3.802285l-.010285.008571-.769715.954.78-.962571M234.456857 568.578857l1.086-.194571-1.086857.192857.000857.001714M235.908 154.616571l-.003429.003429 1.758858-.290571-1.755429.287142m243.872571 70.188l-.001714.001715-.159428 1.02.161142-1.021715M314.408571 88.524l.293143-1.1674286-.308571 1.194.015428-.0265714M119.814857 43.5265714l-.183428 1.428.186-1.428h-.002572m139.311429-17.622l1.018285.54-1.016571-.5408571-.001714.0008571m226.08 201.4551426l-.367715-1.383428.362572 1.376571.005143.006857M251.354571 197.22l-1.511142-.848571 1.510285.869142.000857-.020571M141.444857 575.334l1.215429.522-1.227429-.527143.012.005143m59.755714-84.496286l1.528286-1.017428-1.528286.960857v.056571M95.598 332.37l-3.1457143-.450857 3.1517143.454286-.006-.003429m268.902857-122.609143l1.320857-.790286-1.325143.783429.004286.006857m32.644286-30.730286l-.45 1.044858.45-1.044858m-51.882857 234.822l.928285-1.187142-.935142 1.182857.006857.004285M215.210571 157.938857l1.035429-.698571-1.039714.701143.004285-.002572m-77.746285 235.987714l1.416857.267429-1.415143-.278571-.001714.011142M35.8431429 287.338286l2.112-1.940572-2.1102858 1.937143-.0017142.003429M94.914 102.931714l-.7182857.959143.7217143-.957428-.0034286-.001715m170.932286-73.8111426l.051428 1.038-.032571-1.0448571-.018857.0068571M477.960857 222.269143l.101143-1.598572-.103714 1.608.002571-.009428M269.600571 1.25571429l-.647142.06942857.652285-.06942857h-.005143M27.8468571 422.747143l1.0808572 1.055143-1.0808572-1.075715v.020572m350.8799999-204.708l1.271143-.800572-1.272857.797143.001714.003429m-27.904286-104.796l-.834857.480857.838286-.480857h-.003429M198.388286 95.8508571l-1.349143 1.2094286 1.349143-1.1837143v-.0257143m259.731428 79.5959999l.005143-.001714-1.218857.39 1.213714-.388286M309.264857 303.715714l-1.334571-.315428 1.345714.327428-.011143-.012m31.375714-246.5151426l-.671142-.7165714.663428.7165714h.007714M311.698286 303.011143l1.374857-.019714-1.388572-.074572.013715.094286M130.064571 34.9311429L128.796857 36.204l1.284-1.2805714-.016286.0077143M96.5074286 102.211714l-.99 1.254857L96.54 102.197143l-.0325714.014571m-41.388 235.026l1.0705714.180857-1.074-.196285.0034286.015428M101.244 346.257429l1.143429 3.405428-1.138286-3.424286-.005143.018858M79.0251429 120.234857l-.906.880286.93-.894857-.024.014571M404.516571 179.556l-.003428.002571-.290572 1.232572.294-1.235143M163.283143 425.006571l-.822857-1.254.819428 1.256572.003429-.002572M211.292571 4.07828571l-.759428.13885715.759428-.13885715M195.642 97.2942857l1.810286.4157143-1.816286-.42.006.0042857M82.866 114.03l-.4645714.920571.4748571-.926571-.0102857.006m38.185714 302.882571l.722572 1.339715-.720857-1.35-.001715.010285M38.2448571 285.217714l.8374286-.456-.8751428.472286.0377142-.016286M118.818 71.0648571l1.08.0351429-1.062-.0385714-.018.0034285m79.626 33.3437139l-1.324286-.229714 1.309715.229714h.014571m-120.5897143 15.384v.001715L79.32 118.346571l-1.4657143 1.446m35.6665713 177.138l1.410857-.843428-1.404857.827143-.006.016285M313.136571 73.1537143l-.307714.6925714.308572-.6857143-.000858-.0068571m-179.544857-40.464l-.147428-.3685714.144.3711428.003428-.0025714M237.680571 502.377429l1.851429-.154286-1.851429.150857v.003429M359.076 324.612l1.405714.071143-1.402285-.072-.003429.000857m193.721143 41.678571l.510857-2.244857-.509143 2.238-.001714.006857M15.2708571 205.005429L15.06 206.464286l.2151429-1.464857-.0042858.006M266.061429 26.052l.977142.5477143-.978857-.5494286.001715.0017143m-25.492286 124.764l-.041143-1.755429.036857 1.758858.004286-.003429m-67.418572-29.062286l-.391714 1.119429.405429-1.104857-.013715-.014572m296.898 90.010286l-.461142.899143.462857-.898286-.001715-.000857m-119.596285-83.259429l.210857 1.186286-.209143-1.188-.001714.001714M89.8637143 355.096286l-.234-1.793143.2271428 1.820571.0068572-.027428M389.546571 238.476l1.064572-.075429-1.066286.071143.001714.004286m70.278858-64.653429l-.004286-.000857-.673714.799715.678-.798858M159.937714 19.6422857l-.865714.4508572.867429-.4508572h-.001715M56.292 292.410857l.4174286 1.021714-.4131429-1.024285-.0042857.002571M214.71 91.584l1.507714-1.4031429L214.710857 91.578l-.000857.006m-74.501143 305.269714l1.590857.091715-1.59-.100286-.000857.008571M309.737143 83.8962857l.002571.0034286-.278571-1.1314286.276 1.128M32.0408571 428.553429l1.3105715.187714-1.3105715-.190286v.002572M553.568571 244.512l-.029142-.96.028285.957429.000857.002571M64.9817143 140.682857l-.4345714 1.008857.4362857-1.010571-.0017143.001714m336.5468567 34.512l-1.446857-.817714 1.436572.818571.010285-.000857m-52.920857-61.848l.275143-2.075143-.281143 2.075143h.006M197.988 143.345143l-.684857 1.559143.693428-1.539429-.008571-.019714m146.561143 266.720571l.614571.948-.615428-.952285.000857.004285M67.1717143 460.402286l.762-.119143-.762.112286v.006857M48.4268571 352.123714h.0017143l.81-.972857-.8117143.972857M148.010571 24.7765714l.577715-.3882857-.606857.3985714.029142-.0102857M91.884 330.672l-.0025714-.001714.69 1.236L91.884 330.672m82.307143-216.300857l-.001714.001714-.66 1.032857.661714-1.034571m11.978571 15.111428l-.726-1.130571.72 1.134857.006-.004286m4.462286-22.017428l-1.661143-1.092857 1.628572 1.095428.032571-.002571M25.2625714 420.895714l.9077143 1.260857-.9077143-1.294285v.033428m71.2517143-89.114571l1.014.723428-1.0114286-.725142-.0025714.001714M306.909429 67.7914286l-.004286-.0128572-.859714-.8511428.864.864M70.2668571 129.642857l.1817143.957429-.1791428-.959143-.0025715.001714M3.65142857 266.780571l.26828572-1.366285-.27257143 1.360285.00428571.006M207.643714 4.85742857l-.803143.18085714.807429-.18085714h-.004286M184.310571 252.524571l2.508-1.303714-2.496857 1.293429-.011143.010285m80.666572-82.295142l1.562571-.558-1.552285.546-.010286.012m-34.204286 327.059142l.42-.932571-.42.923143v.009428m-19.735714-240.851142l-.001714-.005143-.849429.841714.851143-.836571M134.574 272.522571l1.191429.156-1.188-.163714-.003429.007714M7.38942857 261.735429l.25371429 1.003714-.24857143-1.014857-.00514286.011143M162.963429 18.8322857l-2.244.8057143 2.241428-.804.002572-.0017143M433.834286 218.291143l1.075714.523714-1.077429-.534.001715.010286m-230.502857 273.324l.824571-.744-.835714.737143.011143.006857M356.784 199.993714l1.163143.39-1.192286-.443143.029143.053143m33.834 39.369429l.910286.686571-.910286-.691714v.005143m.009429-90.344572l-2.159143-.960857 2.156571.96.002572.000857M239.022 142.218l.330857 1.035429-.326571-1.038858-.004286.003429m-89.717143 258.754286l1.016572.982285-1.014858-.99-.001714.007715m65.226-287.302286l.003429.008571.801428-.81-.804857.801429m-48.274286-77.2851429l-.643714.6497143.645429-.6402857-.001715-.0094286M108.593143 374.022l-1.383429-.907714 1.38.922285.003429-.014571m397.447714-144.736286l.232286-.897428-.233143.9.000857-.002572m-19.885714 250.851429l-.010286.552.03-.607714-.019714.055714M454.206 272.793429l-.421714 1.126285.426857-1.122-.005143-.004285m-207.669429-76.537715l.730286-.964285-.728571.948-.001715.016285m146.345143-13.588285l1.050857.007714-1.05-.013714-.000857.006M115.152857 77.3194286l-.024-.0154286-.601714-.3728571.625714.3882857m169.422 36.3600004l-.232286-1.039715.230572 1.043143.001714-.003428M429.528 234.745714l.615429-1.008-.630858.982286.015429.025714m-226.198286 255.75l-.714.889715.72-.883715-.006-.006M189.988286 171.054l1.086 1.772571-1.087715-1.776.001715.003429m1.030285-71.2851429L192.681429 98.64 191.004 99.7405714l.014571.0282857m12.600858 389.5662859l1.157142.051428-1.153714-.055714-.003428.004286M153.264 191.242286l-.004286.006857L155.274 190.278l-2.01.964286m43.269429-54.114857l-1.959429.354 1.965429-.326572-.006-.027428m8.514857-41.9537147l-.464572-1.104.454286 1.1254286.010286-.0214286M84.2468571 112.769143l-.0145714.000857-.2117143.966.2262857-.966857M195.191143 88.2162857l-.924857-.3737143.928285.3762857-.003428-.0025714M73.3345714 360.185143l1.1965715.924857-1.1914286-.944571-.0051429.019714M265.522286 20.988l-1.617429-.042 1.615714.06.001715-.018m124.643143 157.024286l.855428.827143-.850286-.826286-.005142-.000857m79.432285 35.666571l-.164571 1.581429.169714-1.574572-.005143-.006857m-75.492-32.166857l.533143 1.431429-.527143-1.430572-.006-.000857m-157.032-44.186571l-1.321714.712285 1.322571-.709714-.000857-.002571m-9.227143-25.169143l-1.069714-.639429 1.067143.652286.002571-.012857m79.355143 192.725143l2.121429.144-2.123143-.152572.001714.008572M196.208571 99.0711429l-1.599428-.5725715 1.572857.5725715h.026571m-35.285142 16.9697141l.351428.784286-.332571-.797143-.018857.012857m176.382-63.1371427l.818571-.5914286-.835714.5862857.017143.0051429m50.191714 143.8414287l.670286-.966857-.687429.942.017143.024857m88.922571 38.401714l-.760285-.876.756.882.004285-.006M206.806286 105.535714l1.451143-1.099714-1.464858 1.051714.013715.048M109.518 361.854l.007714.016286 1.020857.836571L109.518 361.854m149.122286-188.186571l1.519714 2.315142-1.519714-2.322857v.007715m-62.972572-75.3462861l-.553714-.6917143.545143.6857143.008571.006m-38.960571 93.8777141l-1.299429.716572 1.290857-.696858.008572-.019714m17.729143-143.5851427l.33.4722857-.312857-.4705714-.017143-.0017143M312 70.1665714l-1.5-.6694285 1.5.672v-.0025715m-74.717143 87.0188576l1.511143.084857-1.500857-.086572-.010286.001715M88.4914286 111.431143l-.9822857.03.9797142-.024857.0025715-.005143m108.6231424 27.547714l-.72 1.288286.726-1.277143-.006-.011143m168.822 29.293714l-.001714-.003428-.816857-.958286.818571.961714M88.2702857 328.296l-.3651428 1.054286.3685714-1.056-.0034286.001714M200.496857 104.852571l.942-.724285-.960857.704571.018857.019714m51.36-6.0582853l-.972-1.4297143.938572 1.4451429.033428-.0154286m-14.778 44.3305713l.823714-.776571-.825428.774.001714.002571m117.192857 33.157714l-1.760571-2.789142 1.752857 2.778.007714.011142m-93.700285-81.3488567l-.982286-.9205714.982286.9205714M259.794 95.454l-.770571-.774.726857.7662857.043714.0077143"/></defs><g fill="none" fill-rule="evenodd"><path fill="url(#a)" d="M600 300c0 165.685714-134.315143 300-300 300C134.314286 600 0 465.685714 0 300S134.314286 0 300 0c165.684857 0 300 134.314286 300 300z"/><path fill="url(#b)" d="M300 600C134.314286 600 0 465.685714 0 300S134.314286 0 300 0c165.684857 0 300 134.314286 300 300S465.684857 600 300 600z"/><g transform="translate(39.428571)"><use fill="url(#c)" xlink:href="#d"/><use fill="#000" fill-opacity=".25246264" xlink:href="#d"/></g><g filter="url(#e)" transform="translate(-130 -5)"><path fill="#896ACD" d="M183 242l336-77.1539812L516.369014 160zM245 395l325-170.1917115L567.373794 220z"/><path fill="url(#f)" d="M458 90c0 49.705627-39.846657 90-89 90s-89-40.294373-89-90c0-49.7056275 39.846657-90 89-90s89 40.2943725 89 90z" transform="translate(183 142)"/><path fill="#896ACD" d="M187 380l338-146.1465461L522.360906 229zM258 535l316-230.163263L571.37205 300z"/></g></g></svg>