<svg width="380" height="186" viewBox="0 0 380 186" fill="none" xmlns="http://www.w3.org/2000/svg">
<g filter="url(#filter0_dd)">
<rect x="3" y="10" width="266.156" height="44" rx="15" fill="#EDE9FE"/>
<path d="M72.7621 37H70.8581L69.9061 29.846L68.9121 37H66.9801L65.7481 27.34H67.3161L68.0721 35.432L69.1081 28.46H70.7741L71.7401 35.432L72.6361 27.34H74.0921L72.7621 37ZM78.3146 25.982C78.6133 25.982 78.856 26.08 79.0426 26.276C79.2386 26.4627 79.3366 26.696 79.3366 26.976C79.3366 27.256 79.2386 27.4893 79.0426 27.676C78.856 27.8627 78.6133 27.956 78.3146 27.956C78.0066 27.956 77.7593 27.8627 77.5726 27.676C77.386 27.4893 77.2926 27.256 77.2926 26.976C77.2926 26.6867 77.386 26.4487 77.5726 26.262C77.7686 26.0753 78.016 25.982 78.3146 25.982ZM79.3926 35.852H81.4086V37H75.6266V35.852H77.8246V30.756H75.6966V29.608H79.3926V35.852ZM89.6632 26.64V37H88.2772L88.1652 36.09C87.9225 36.4447 87.6238 36.7153 87.2692 36.902C86.9145 37.0887 86.5225 37.182 86.0932 37.182C85.1692 37.182 84.4738 36.8367 84.0072 36.146C83.5405 35.4553 83.3072 34.508 83.3072 33.304C83.3072 32.548 83.4238 31.876 83.6572 31.288C83.8998 30.7 84.2405 30.2427 84.6792 29.916C85.1178 29.58 85.6358 29.412 86.2332 29.412C86.9892 29.412 87.6098 29.6827 88.0952 30.224V26.458L89.6632 26.64ZM86.6392 30.616C86.0978 30.616 85.6825 30.84 85.3932 31.288C85.1132 31.7267 84.9732 32.3987 84.9732 33.304C84.9732 35.096 85.4865 35.992 86.5132 35.992C87.1292 35.992 87.6565 35.6373 88.0952 34.928V31.442C87.7125 30.8913 87.2272 30.616 86.6392 30.616ZM98.7857 29.972C98.515 30.0653 98.207 30.1307 97.8617 30.168C97.5257 30.196 97.1197 30.21 96.6437 30.21C97.0917 30.4153 97.4277 30.672 97.6517 30.98C97.8757 31.288 97.9877 31.6613 97.9877 32.1C97.9877 32.5853 97.8664 33.0147 97.6237 33.388C97.3904 33.7613 97.0544 34.0553 96.6157 34.27C96.177 34.4847 95.659 34.592 95.0617 34.592C94.6417 34.592 94.3057 34.55 94.0537 34.466C93.951 34.5407 93.8717 34.634 93.8157 34.746C93.7597 34.8487 93.7317 34.9607 93.7317 35.082C93.7317 35.4553 94.035 35.642 94.6417 35.642H95.9297C96.4524 35.642 96.919 35.7307 97.3297 35.908C97.7404 36.0853 98.0577 36.3327 98.2817 36.65C98.515 36.958 98.6317 37.308 98.6317 37.7C98.6317 38.4373 98.3144 39.0067 97.6797 39.408C97.045 39.8187 96.1304 40.024 94.9357 40.024C94.105 40.024 93.447 39.9353 92.9617 39.758C92.4857 39.59 92.145 39.338 91.9397 39.002C91.7437 38.6753 91.6457 38.2507 91.6457 37.728H93.0457C93.0457 38.008 93.097 38.2273 93.1997 38.386C93.3117 38.554 93.503 38.6753 93.7737 38.75C94.0444 38.834 94.4364 38.876 94.9497 38.876C95.6964 38.876 96.233 38.7827 96.5597 38.596C96.8864 38.4187 97.0497 38.1527 97.0497 37.798C97.0497 37.4993 96.919 37.266 96.6577 37.098C96.4057 36.9393 96.0604 36.86 95.6217 36.86H94.3477C93.685 36.86 93.181 36.7247 92.8357 36.454C92.4997 36.1833 92.3317 35.8427 92.3317 35.432C92.3317 35.18 92.4017 34.9373 92.5417 34.704C92.6817 34.4707 92.8824 34.27 93.1437 34.102C92.705 33.8687 92.383 33.5887 92.1777 33.262C91.9817 32.926 91.8837 32.5153 91.8837 32.03C91.8837 31.5167 92.0144 31.064 92.2757 30.672C92.537 30.2707 92.901 29.9627 93.3677 29.748C93.8344 29.524 94.3664 29.412 94.9637 29.412C95.7664 29.4213 96.401 29.3653 96.8677 29.244C97.3437 29.1227 97.8477 28.9313 98.3797 28.67L98.7857 29.972ZM94.9777 30.504C94.483 30.504 94.1097 30.644 93.8577 30.924C93.6057 31.1947 93.4797 31.5633 93.4797 32.03C93.4797 32.506 93.6057 32.884 93.8577 33.164C94.119 33.4347 94.497 33.57 94.9917 33.57C95.4584 33.57 95.813 33.4347 96.0557 33.164C96.2984 32.8933 96.4197 32.506 96.4197 32.002C96.4197 31.0033 95.939 30.504 94.9777 30.504ZM101.846 33.808C101.893 34.5267 102.098 35.068 102.462 35.432C102.836 35.7867 103.302 35.964 103.862 35.964C104.208 35.964 104.534 35.9127 104.842 35.81C105.16 35.698 105.482 35.5347 105.808 35.32L106.48 36.272C106.135 36.5613 105.729 36.7853 105.262 36.944C104.796 37.1027 104.306 37.182 103.792 37.182C102.663 37.182 101.786 36.832 101.16 36.132C100.535 35.4227 100.222 34.48 100.222 33.304C100.222 32.5667 100.358 31.904 100.628 31.316C100.899 30.7187 101.291 30.252 101.804 29.916C102.318 29.58 102.915 29.412 103.596 29.412C104.576 29.412 105.351 29.7433 105.92 30.406C106.499 31.0593 106.788 31.96 106.788 33.108C106.788 33.388 106.774 33.6213 106.746 33.808H101.846ZM103.61 30.574C103.106 30.574 102.696 30.756 102.378 31.12C102.061 31.484 101.879 32.0253 101.832 32.744H105.262C105.244 32.044 105.094 31.5073 104.814 31.134C104.534 30.7607 104.133 30.574 103.61 30.574ZM115.113 36.608C114.833 36.7853 114.506 36.9253 114.133 37.028C113.759 37.1307 113.367 37.182 112.957 37.182C112.117 37.182 111.468 36.9673 111.011 36.538C110.553 36.0993 110.325 35.5067 110.325 34.76V30.756H108.687V29.608H110.325V27.956L111.893 27.774V29.608H114.399L114.217 30.756H111.893V34.746C111.893 35.1473 111.995 35.446 112.201 35.642C112.406 35.8287 112.733 35.922 113.181 35.922C113.675 35.922 114.133 35.8053 114.553 35.572L115.113 36.608ZM120.021 35.992C120.516 35.992 120.903 35.9033 121.183 35.726C121.473 35.5487 121.617 35.306 121.617 34.998C121.617 34.7833 121.575 34.6107 121.491 34.48C121.407 34.34 121.239 34.214 120.987 34.102C120.735 33.9807 120.357 33.8547 119.853 33.724C119.041 33.5187 118.43 33.2573 118.019 32.94C117.618 32.6133 117.417 32.1467 117.417 31.54C117.417 30.896 117.683 30.3827 118.215 30C118.747 29.608 119.466 29.412 120.371 29.412C121.463 29.412 122.401 29.6967 123.185 30.266L122.513 31.26C121.851 30.8213 121.151 30.602 120.413 30.602C119.48 30.602 119.013 30.8727 119.013 31.414C119.013 31.6007 119.065 31.7547 119.167 31.876C119.279 31.9973 119.466 32.114 119.727 32.226C119.989 32.3287 120.376 32.45 120.889 32.59C121.692 32.814 122.289 33.0893 122.681 33.416C123.083 33.7427 123.283 34.2327 123.283 34.886C123.283 35.642 122.971 36.216 122.345 36.608C121.72 36.9907 120.945 37.182 120.021 37.182C118.799 37.182 117.786 36.8367 116.983 36.146L117.809 35.194C118.117 35.4367 118.458 35.6327 118.831 35.782C119.214 35.922 119.611 35.992 120.021 35.992ZM133.492 37.924L139.428 25.632L140.66 26.206L134.738 38.484L133.492 37.924ZM152.115 34.676L151.443 37H149.777L152.857 27.34H154.873L157.953 37H156.231L155.559 34.676H152.115ZM155.223 33.416L153.837 28.6L152.451 33.416H155.223ZM162.876 35.894C163.464 35.894 164.071 35.684 164.696 35.264L165.41 36.272C165.083 36.552 164.691 36.776 164.234 36.944C163.777 37.1027 163.305 37.182 162.82 37.182C161.691 37.182 160.809 36.8367 160.174 36.146C159.539 35.446 159.222 34.5127 159.222 33.346C159.222 32.59 159.367 31.918 159.656 31.33C159.945 30.7327 160.361 30.266 160.902 29.93C161.453 29.5847 162.101 29.412 162.848 29.412C163.828 29.412 164.682 29.7107 165.41 30.308L164.682 31.288C164.085 30.8773 163.483 30.672 162.876 30.672C162.26 30.672 161.775 30.896 161.42 31.344C161.065 31.7827 160.888 32.45 160.888 33.346C160.888 34.2233 161.065 34.8673 161.42 35.278C161.775 35.6887 162.26 35.894 162.876 35.894ZM173.874 36.608C173.594 36.7853 173.268 36.9253 172.894 37.028C172.521 37.1307 172.129 37.182 171.718 37.182C170.878 37.182 170.23 36.9673 169.772 36.538C169.315 36.0993 169.086 35.5067 169.086 34.76V30.756H167.448V29.608H169.086V27.956L170.654 27.774V29.608H173.16L172.978 30.756H170.654V34.746C170.654 35.1473 170.757 35.446 170.962 35.642C171.168 35.8287 171.494 35.922 171.942 35.922C172.437 35.922 172.894 35.8053 173.314 35.572L173.874 36.608ZM179.049 25.982C179.348 25.982 179.59 26.08 179.777 26.276C179.973 26.4627 180.071 26.696 180.071 26.976C180.071 27.256 179.973 27.4893 179.777 27.676C179.59 27.8627 179.348 27.956 179.049 27.956C178.741 27.956 178.494 27.8627 178.307 27.676C178.12 27.4893 178.027 27.256 178.027 26.976C178.027 26.6867 178.12 26.4487 178.307 26.262C178.503 26.0753 178.75 25.982 179.049 25.982ZM180.127 35.852H182.143V37H176.361V35.852H178.559V30.756H176.431V29.608H180.127V35.852ZM187.458 29.412C188.522 29.412 189.343 29.762 189.922 30.462C190.5 31.1527 190.79 32.0953 190.79 33.29C190.79 34.4847 190.496 35.432 189.908 36.132C189.32 36.832 188.498 37.182 187.444 37.182C186.38 37.182 185.554 36.8413 184.966 36.16C184.387 35.4693 184.098 34.5173 184.098 33.304C184.098 32.128 184.392 31.1853 184.98 30.476C185.577 29.7667 186.403 29.412 187.458 29.412ZM187.458 30.63C186.888 30.63 186.459 30.8493 186.17 31.288C185.89 31.7267 185.75 32.3987 185.75 33.304C185.75 34.2187 185.89 34.8953 186.17 35.334C186.45 35.7633 186.874 35.978 187.444 35.978C188.013 35.978 188.438 35.7587 188.718 35.32C188.998 34.8813 189.138 34.2047 189.138 33.29C189.138 32.3847 188.998 31.7173 188.718 31.288C188.438 30.8493 188.018 30.63 187.458 30.63ZM192.884 29.608H194.242L194.354 30.574C194.662 30.2007 195.021 29.916 195.432 29.72C195.852 29.5147 196.291 29.412 196.748 29.412C197.429 29.412 197.943 29.6033 198.288 29.986C198.633 30.3687 198.806 30.91 198.806 31.61V37H197.238V32.394C197.238 31.9367 197.21 31.5867 197.154 31.344C197.107 31.092 197.009 30.91 196.86 30.798C196.711 30.6767 196.487 30.616 196.188 30.616C195.852 30.616 195.53 30.7187 195.222 30.924C194.923 31.1293 194.667 31.386 194.452 31.694V37H192.884V29.608ZM203.967 35.992C204.461 35.992 204.849 35.9033 205.129 35.726C205.418 35.5487 205.563 35.306 205.563 34.998C205.563 34.7833 205.521 34.6107 205.437 34.48C205.353 34.34 205.185 34.214 204.933 34.102C204.681 33.9807 204.303 33.8547 203.799 33.724C202.987 33.5187 202.375 33.2573 201.965 32.94C201.563 32.6133 201.363 32.1467 201.363 31.54C201.363 30.896 201.629 30.3827 202.161 30C202.693 29.608 203.411 29.412 204.317 29.412C205.409 29.412 206.347 29.6967 207.131 30.266L206.459 31.26C205.796 30.8213 205.096 30.602 204.359 30.602C203.425 30.602 202.959 30.8727 202.959 31.414C202.959 31.6007 203.01 31.7547 203.113 31.876C203.225 31.9973 203.411 32.114 203.673 32.226C203.934 32.3287 204.321 32.45 204.835 32.59C205.637 32.814 206.235 33.0893 206.627 33.416C207.028 33.7427 207.229 34.2327 207.229 34.886C207.229 35.642 206.916 36.216 206.291 36.608C205.665 36.9907 204.891 37.182 203.967 37.182C202.744 37.182 201.731 36.8367 200.929 36.146L201.755 35.194C202.063 35.4367 202.403 35.6327 202.777 35.782C203.159 35.922 203.556 35.992 203.967 35.992Z" fill="#4C1D95"/>
</g>
<g opacity="0.5">
<g filter="url(#filter1_dd)">
<rect x="212" y="101" width="58" height="69" rx="15" fill="#DDD6FE"/>
<path d="M226.878 138.494L226.206 140.818H224.54L227.62 131.158H229.636L232.716 140.818H230.994L230.322 138.494H226.878ZM229.986 137.234L228.6 132.418L227.214 137.234H229.986ZM235.636 138.592C235.636 139.022 235.72 139.334 235.888 139.53C236.066 139.717 236.332 139.81 236.686 139.81C237.022 139.81 237.344 139.712 237.652 139.516C237.97 139.32 238.222 139.073 238.408 138.774V133.426H239.976V140.818H238.618L238.52 139.866C238.259 140.23 237.918 140.51 237.498 140.706C237.078 140.902 236.644 141 236.196 141C235.487 141 234.955 140.809 234.6 140.426C234.246 140.044 234.068 139.498 234.068 138.788V133.426H235.636V138.592ZM248.637 140.426C248.357 140.604 248.03 140.744 247.657 140.846C247.283 140.949 246.891 141 246.481 141C245.641 141 244.992 140.786 244.535 140.356C244.077 139.918 243.849 139.325 243.849 138.578V134.574H242.211V133.426H243.849V131.774L245.417 131.592V133.426H247.923L247.741 134.574H245.417V138.564C245.417 138.966 245.519 139.264 245.725 139.46C245.93 139.647 246.257 139.74 246.705 139.74C247.199 139.74 247.657 139.624 248.077 139.39L248.637 140.426ZM252.425 134.336C252.724 133.972 253.069 133.697 253.461 133.51C253.863 133.324 254.283 133.23 254.721 133.23C255.403 133.23 255.916 133.422 256.261 133.804C256.607 134.178 256.779 134.719 256.779 135.428V140.818H255.211V135.666C255.211 135.228 255.127 134.915 254.959 134.728C254.791 134.532 254.521 134.434 254.147 134.434C253.821 134.434 253.503 134.542 253.195 134.756C252.897 134.962 252.64 135.218 252.425 135.526V140.818H250.857V130.472L252.425 130.304V134.336Z" fill="#6D28D9"/>
</g>
<g filter="url(#filter2_dd)">
<rect x="140" y="101" width="58" height="69" rx="15" fill="#DDD6FE"/>
<path d="M168.368 137.654C168.368 138.308 168.233 138.886 167.962 139.39C167.701 139.894 167.318 140.291 166.814 140.58C166.31 140.86 165.708 141 165.008 141C163.954 141 163.132 140.697 162.544 140.09C161.966 139.484 161.676 138.672 161.676 137.654V131.158H163.3V137.346C163.3 138.149 163.436 138.746 163.706 139.138C163.986 139.521 164.42 139.712 165.008 139.712C165.606 139.712 166.04 139.521 166.31 139.138C166.59 138.746 166.73 138.149 166.73 137.346V131.158H168.368V137.654ZM176.329 132.39H174.229V139.572H176.329V140.818H170.505V139.572H172.605V132.39H170.505V131.158H176.329V132.39Z" fill="#6D28D9"/>
</g>
<g filter="url(#filter3_dd)">
<rect x="3" y="103" width="123" height="33" rx="15" fill="#DDD6FE"/>
<path d="M55.857 122.27C55.857 122.849 55.7077 123.357 55.409 123.796C55.1197 124.235 54.695 124.575 54.135 124.818C53.5843 125.061 52.9263 125.182 52.161 125.182C50.6677 125.182 49.4823 124.753 48.605 123.894L49.501 122.9C50.229 123.572 51.1157 123.908 52.161 123.908C52.7397 123.908 53.2157 123.773 53.589 123.502C53.9717 123.231 54.163 122.849 54.163 122.354C54.163 122.065 54.1023 121.822 53.981 121.626C53.869 121.43 53.673 121.257 53.393 121.108C53.113 120.949 52.7117 120.791 52.189 120.632C51.1157 120.315 50.327 119.937 49.823 119.498C49.319 119.059 49.067 118.481 49.067 117.762C49.067 117.249 49.207 116.796 49.487 116.404C49.7763 116.003 50.173 115.695 50.677 115.48C51.181 115.256 51.7503 115.144 52.385 115.144C53.6823 115.144 54.7603 115.531 55.619 116.306L54.765 117.272C54.1023 116.703 53.3417 116.418 52.483 116.418C51.9603 116.418 51.5357 116.525 51.209 116.74C50.8917 116.955 50.733 117.263 50.733 117.664C50.733 117.916 50.7983 118.131 50.929 118.308C51.069 118.485 51.2977 118.649 51.615 118.798C51.9417 118.938 52.399 119.097 52.987 119.274C53.9203 119.554 54.6297 119.913 55.115 120.352C55.6097 120.791 55.857 121.43 55.857 122.27ZM61.7315 125.028C61.4329 125.924 60.9989 126.624 60.4295 127.128C59.8695 127.641 59.0949 127.94 58.1055 128.024L57.9095 126.848C58.3949 126.773 58.7869 126.657 59.0855 126.498C59.3842 126.349 59.6222 126.157 59.7995 125.924C59.9769 125.691 60.1355 125.383 60.2755 125H59.7435L57.2515 117.608H58.9175L60.7795 123.908L62.6695 117.608H64.2795L61.7315 125.028ZM66.2061 117.608H67.5641L67.6761 118.574C67.9841 118.201 68.3434 117.916 68.7541 117.72C69.1741 117.515 69.6127 117.412 70.0701 117.412C70.7514 117.412 71.2647 117.603 71.6101 117.986C71.9554 118.369 72.1281 118.91 72.1281 119.61V125H70.5601V120.394C70.5601 119.937 70.5321 119.587 70.4761 119.344C70.4294 119.092 70.3314 118.91 70.1821 118.798C70.0327 118.677 69.8087 118.616 69.5101 118.616C69.1741 118.616 68.8521 118.719 68.5441 118.924C68.2454 119.129 67.9887 119.386 67.7741 119.694V125H66.2061V117.608ZM78.1706 123.894C78.7586 123.894 79.3653 123.684 79.9906 123.264L80.7046 124.272C80.3779 124.552 79.9859 124.776 79.5286 124.944C79.0713 125.103 78.5999 125.182 78.1146 125.182C76.9853 125.182 76.1033 124.837 75.4686 124.146C74.8339 123.446 74.5166 122.513 74.5166 121.346C74.5166 120.59 74.6613 119.918 74.9506 119.33C75.2399 118.733 75.6553 118.266 76.1966 117.93C76.7473 117.585 77.3959 117.412 78.1426 117.412C79.1226 117.412 79.9766 117.711 80.7046 118.308L79.9766 119.288C79.3793 118.877 78.7773 118.672 78.1706 118.672C77.5546 118.672 77.0693 118.896 76.7146 119.344C76.3599 119.783 76.1826 120.45 76.1826 121.346C76.1826 122.223 76.3599 122.867 76.7146 123.278C77.0693 123.689 77.5546 123.894 78.1706 123.894Z" fill="#6D28D9"/>
</g>
<g filter="url(#filter4_dd)">
<rect x="64" y="147" width="58" height="23" rx="11.5" fill="#DDD6FE"/>
<path d="M82.8371 155.055C82.9865 156.585 83.0611 157.864 83.0611 158.891V163.273H81.6191V153.613H83.7331L86.8131 161.831C86.7478 161.14 86.6918 160.519 86.6451 159.969C86.6078 159.409 86.5891 158.755 86.5891 158.009V153.613H88.0311V163.273H85.9171L82.8371 155.055ZM91.5677 160.081C91.6143 160.799 91.8197 161.341 92.1837 161.705C92.557 162.059 93.0237 162.237 93.5837 162.237C93.929 162.237 94.2557 162.185 94.5637 162.083C94.881 161.971 95.203 161.807 95.5297 161.593L96.2017 162.545C95.8563 162.834 95.4503 163.058 94.9837 163.217C94.517 163.375 94.027 163.455 93.5137 163.455C92.3843 163.455 91.507 163.105 90.8817 162.405C90.2563 161.695 89.9437 160.753 89.9437 159.577C89.9437 158.839 90.079 158.177 90.3497 157.589C90.6203 156.991 91.0123 156.525 91.5257 156.189C92.039 155.853 92.6363 155.685 93.3177 155.685C94.2977 155.685 95.0723 156.016 95.6417 156.679C96.2203 157.332 96.5097 158.233 96.5097 159.381C96.5097 159.661 96.4957 159.894 96.4677 160.081H91.5677ZM93.3317 156.847C92.8277 156.847 92.417 157.029 92.0997 157.393C91.7823 157.757 91.6003 158.298 91.5537 159.017H94.9837C94.965 158.317 94.8157 157.78 94.5357 157.407C94.2557 157.033 93.8543 156.847 93.3317 156.847ZM104.834 162.881C104.554 163.058 104.228 163.198 103.854 163.301C103.481 163.403 103.089 163.455 102.678 163.455C101.838 163.455 101.19 163.24 100.732 162.811C100.275 162.372 100.046 161.779 100.046 161.033V157.029H98.4082V155.881H100.046V154.229L101.614 154.047V155.881H104.12L103.938 157.029H101.614V161.019C101.614 161.42 101.717 161.719 101.922 161.915C102.128 162.101 102.454 162.195 102.902 162.195C103.397 162.195 103.854 162.078 104.274 161.845L104.834 162.881Z" fill="#6D28D9"/>
</g>
<g filter="url(#filter5_dd)">
<rect x="3" y="147" width="58" height="23" rx="11.5" fill="#DDD6FE"/>
<path d="M18.9166 160.543C18.9166 161.121 18.7673 161.63 18.4686 162.069C18.1793 162.507 17.7546 162.848 17.1946 163.091C16.6439 163.333 15.9859 163.455 15.2206 163.455C13.7273 163.455 12.5419 163.025 11.6646 162.167L12.5606 161.173C13.2886 161.845 14.1753 162.181 15.2206 162.181C15.7993 162.181 16.2753 162.045 16.6486 161.775C17.0313 161.504 17.2226 161.121 17.2226 160.627C17.2226 160.337 17.1619 160.095 17.0406 159.899C16.9286 159.703 16.7326 159.53 16.4526 159.381C16.1726 159.222 15.7713 159.063 15.2486 158.905C14.1753 158.587 13.3866 158.209 12.8826 157.771C12.3786 157.332 12.1266 156.753 12.1266 156.035C12.1266 155.521 12.2666 155.069 12.5466 154.677C12.8359 154.275 13.2326 153.967 13.7366 153.753C14.2406 153.529 14.8099 153.417 15.4446 153.417C16.7419 153.417 17.8199 153.804 18.6786 154.579L17.8246 155.545C17.1619 154.975 16.4013 154.691 15.5426 154.691C15.0199 154.691 14.5953 154.798 14.2686 155.013C13.9513 155.227 13.7926 155.535 13.7926 155.937C13.7926 156.189 13.8579 156.403 13.9886 156.581C14.1286 156.758 14.3573 156.921 14.6746 157.071C15.0013 157.211 15.4586 157.369 16.0466 157.547C16.9799 157.827 17.6893 158.186 18.1746 158.625C18.6693 159.063 18.9166 159.703 18.9166 160.543ZM27.0451 162.881C26.7651 163.058 26.4385 163.198 26.0651 163.301C25.6918 163.403 25.2998 163.455 24.8891 163.455C24.0491 163.455 23.4005 163.24 22.9431 162.811C22.4858 162.372 22.2571 161.779 22.2571 161.033V157.029H20.6191V155.881H22.2571V154.229L23.8251 154.047V155.881H26.3311L26.1491 157.029H23.8251V161.019C23.8251 161.42 23.9278 161.719 24.1331 161.915C24.3385 162.101 24.6651 162.195 25.1131 162.195C25.6078 162.195 26.0651 162.078 26.4851 161.845L27.0451 162.881ZM34.9217 161.467C34.9217 161.747 34.9637 161.957 35.0477 162.097C35.1317 162.227 35.2763 162.325 35.4817 162.391L35.1177 163.455C34.343 163.361 33.8343 163.021 33.5917 162.433C33.321 162.769 32.9803 163.025 32.5697 163.203C32.1683 163.371 31.725 163.455 31.2397 163.455C30.493 163.455 29.9003 163.245 29.4617 162.825C29.023 162.405 28.8037 161.849 28.8037 161.159C28.8037 160.384 29.107 159.787 29.7137 159.367C30.3297 158.947 31.1977 158.737 32.3177 158.737H33.3677V158.261C33.3677 157.794 33.2277 157.453 32.9477 157.239C32.6677 157.024 32.2617 156.917 31.7297 156.917C31.4683 156.917 31.165 156.949 30.8197 157.015C30.4743 157.08 30.1243 157.173 29.7697 157.295L29.3777 156.189C30.2643 155.853 31.1277 155.685 31.9677 155.685C32.9477 155.685 33.685 155.899 34.1797 156.329C34.6743 156.758 34.9217 157.369 34.9217 158.163V161.467ZM31.7017 162.307C32.0283 162.307 32.341 162.223 32.6397 162.055C32.9477 161.887 33.1903 161.653 33.3677 161.355V159.717H32.4997C31.7903 159.717 31.2723 159.838 30.9457 160.081C30.619 160.314 30.4557 160.655 30.4557 161.103C30.4557 161.495 30.5583 161.793 30.7637 161.999C30.9783 162.204 31.291 162.307 31.7017 162.307ZM43.8342 162.881C43.5542 163.058 43.2275 163.198 42.8542 163.301C42.4809 163.403 42.0889 163.455 41.6782 163.455C40.8382 163.455 40.1895 163.24 39.7322 162.811C39.2749 162.372 39.0462 161.779 39.0462 161.033V157.029H37.4082V155.881H39.0462V154.229L40.6142 154.047V155.881H43.1202L42.9382 157.029H40.6142V161.019C40.6142 161.42 40.7169 161.719 40.9222 161.915C41.1275 162.101 41.4542 162.195 41.9022 162.195C42.3969 162.195 42.8542 162.078 43.2742 161.845L43.8342 162.881ZM47.3567 160.081C47.4034 160.799 47.6087 161.341 47.9727 161.705C48.3461 162.059 48.8127 162.237 49.3727 162.237C49.7181 162.237 50.0447 162.185 50.3527 162.083C50.6701 161.971 50.9921 161.807 51.3187 161.593L51.9907 162.545C51.6454 162.834 51.2394 163.058 50.7727 163.217C50.3061 163.375 49.8161 163.455 49.3027 163.455C48.1734 163.455 47.2961 163.105 46.6707 162.405C46.0454 161.695 45.7327 160.753 45.7327 159.577C45.7327 158.839 45.8681 158.177 46.1387 157.589C46.4094 156.991 46.8014 156.525 47.3147 156.189C47.8281 155.853 48.4254 155.685 49.1067 155.685C50.0867 155.685 50.8614 156.016 51.4307 156.679C52.0094 157.332 52.2987 158.233 52.2987 159.381C52.2987 159.661 52.2847 159.894 52.2567 160.081H47.3567ZM49.1207 156.847C48.6167 156.847 48.2061 157.029 47.8887 157.393C47.5714 157.757 47.3894 158.298 47.3427 159.017H50.7727C50.7541 158.317 50.6047 157.78 50.3247 157.407C50.0447 157.033 49.6434 156.847 49.1207 156.847Z" fill="#6D28D9"/>
</g>
</g>
<path d="M73.0087 79.4872L74.0989 80.6893C74.5605 81.1983 74.5605 82.0214 74.0989 82.525L64.5574 93.0518C64.0957 93.5608 63.3493 93.5608 62.8926 93.0518L53.3462 82.525C52.8846 82.016 52.8846 81.1929 53.3462 80.6893L54.4364 79.4872C54.9029 78.9727 55.6641 78.9836 56.1208 79.5088L61.7583 86.0339V70.4711C61.7583 69.7509 62.2837 69.1715 62.9368 69.1715H64.5082C65.1614 69.1715 65.6868 69.7509 65.6868 70.4711V86.0339L71.3243 79.5088C71.781 78.9781 72.5422 78.9673 73.0087 79.4872Z" fill="#DDD6FE"/>
<path d="M178.009 79.4872L179.099 80.6893C179.56 81.1983 179.56 82.0214 179.099 82.525L169.557 93.0518C169.096 93.5608 168.349 93.5608 167.893 93.0518L158.346 82.525C157.885 82.016 157.885 81.1929 158.346 80.6893L159.436 79.4872C159.903 78.9727 160.664 78.9836 161.121 79.5088L166.758 86.0339V70.4711C166.758 69.7509 167.284 69.1715 167.937 69.1715H169.508C170.161 69.1715 170.687 69.7509 170.687 70.4711V86.0339L176.324 79.5088C176.781 78.9781 177.542 78.9673 178.009 79.4872Z" fill="#DDD6FE"/>
<path d="M250.009 79.4872L251.099 80.6893C251.56 81.1983 251.56 82.0214 251.099 82.525L241.557 93.0518C241.096 93.5608 240.349 93.5608 239.893 93.0518L230.346 82.525C229.885 82.016 229.885 81.1929 230.346 80.6893L231.436 79.4872C231.903 78.9727 232.664 78.9836 233.121 79.5088L238.758 86.0339V70.4711C238.758 69.7509 239.284 69.1715 239.937 69.1715H241.508C242.161 69.1715 242.687 69.7509 242.687 70.4711V86.0339L248.324 79.5088C248.781 78.9781 249.542 78.9673 250.009 79.4872Z" fill="#DDD6FE"/>
<path d="M256.156 90.1161C264.12 88.4701 279.204 87.115 282.871 97.8356C285.133 104.447 285.255 112.274 284.331 119.208C283.945 122.099 282.535 125.004 282.535 127.948C282.535 130.344 284.21 132.418 285.846 133.69C288.385 135.665 297.591 136.704 294.545 137.199C290.197 137.905 286.077 137.504 285.229 143.196C284.426 148.578 285.453 153.163 285.453 158.507C285.453 164.504 286.934 174.464 283.657 179.56C278.7 187.271 266.052 184.636 259.187 184.281" stroke="url(#paint0_linear)" stroke-linecap="round" stroke-linejoin="round"/>
<path d="M261 65.2443C267.33 66.3588 279.32 67.2763 282.235 60.0176C284.033 55.5412 284.13 50.2416 283.395 45.5468C283.089 43.5891 281.967 41.6226 281.967 39.6289C281.967 38.0064 283.299 36.6026 284.6 35.7413C286.618 34.404 293.936 33.7004 291.514 33.3655C288.058 32.8873 284.783 33.1588 284.109 29.305C283.471 25.6605 284.287 22.5562 284.287 18.9379C284.287 14.8774 285.464 8.13391 282.86 4.68314C278.919 -0.537691 268.866 1.24644 263.409 1.48662" stroke="url(#paint1_linear)" stroke-linecap="round" stroke-linejoin="round"/>
<path d="M301.297 144.613C303.28 142.39 304.597 140.154 305.889 137.468C306.69 135.804 307.277 134.058 307.91 132.326C308.254 131.388 308.359 130.693 308.309 132.274C308.22 135.102 307.751 138.215 308.148 141.021C308.195 141.356 308.743 140.64 308.903 140.343C309.839 138.605 310.676 136.813 311.548 135.044C311.921 134.287 312.195 133.467 312.696 132.788C313.251 132.034 313.132 134.631 313.104 135.567C313.014 138.611 312.807 141.653 312.644 144.693M316.583 140.153C316.219 141.559 316.033 142.907 315.831 144.336M317.115 135.166C316.622 136.252 316.195 136.641 317.428 136.972C318.447 137.246 317.468 135.658 317.364 135.444M322.914 140.229C321.39 140.479 321.044 140.653 320.967 142.09C320.92 142.97 321.87 143.748 322.064 144.598C322.358 145.881 319.39 146.174 318.627 146.334M327.084 141.244C325.841 141.217 324.646 141.154 324.63 142.697C324.624 143.264 324.885 143.708 324.778 144.318C324.524 145.759 323.762 145.982 322.825 146.823M329.631 142.965L329.17 146.636M330.454 137.466C329.285 138.965 330.633 139.055 330.675 138.269M335.478 142.223C333.799 142.449 332.528 143.089 332.428 144.963C332.39 145.657 333.712 145.307 334.011 145.238C335.876 144.812 335.657 143.819 335.742 142.237M338.11 142.364L337.965 145.084C337.95 145.348 337.462 145.938 337.704 145.832C338.393 145.533 338.75 144.21 339.53 143.789C341.637 142.652 340.958 145.444 340.794 146.467M355.018 137.199C352.319 137.405 350.498 137.593 348.972 140.013C348.365 140.974 348.347 142.093 348.243 143.201C347.993 145.88 349.013 145.984 351.046 147.281M355.995 143.587C354.729 143.545 353.403 143.521 353.02 144.923C352.084 148.353 354.858 145.824 355.69 144.363M358.322 144.504C358.247 145.551 357.307 148.41 358.022 147.641C358.366 147.269 358.671 146.613 358.965 146.181C359.611 145.231 359.767 144.687 361.076 144.563C363.128 144.37 362.019 147.167 361.809 148.386M366.294 138.596C365.741 139.964 363.205 148.847 364.399 149.317M363.243 141.336C364.022 141.573 364.798 141.788 365.584 141.99M367.271 144.984C367.214 146.045 366.762 147.299 366.828 148.333C366.861 148.854 368.039 147.281 368.089 147.228C368.703 146.585 368.825 146.651 369.555 146.69M373.546 146.112C372.411 146.54 370.003 148.811 371.642 150.16C372.19 150.611 373.459 150.406 374.033 150.157C375.626 149.464 374.187 147.46 373.781 146.653M379.093 141.13C378.666 143.17 377.993 145.082 377.425 147.068C377.017 148.498 376.204 149.836 376.7 151.297" stroke="url(#paint2_linear)" stroke-linecap="round" stroke-linejoin="round"/>
<path d="M309.156 28C309.846 29.4759 310.481 30.9606 311.528 32.2175M311.265 32.7448C312.244 31.4131 313.051 29.9434 313.901 28.5272M311.001 32.7448C311.28 34.4896 311.403 36.2581 311.528 38.0167M316.537 33.5355C314.555 34.3574 313.202 36.5616 316.302 37.1087C317.472 37.3152 319.546 35.8713 318.221 34.6485C317.831 34.2884 317.038 34.3263 316.537 34.3263M321.545 33.0083C321.251 34.8434 320.969 38.0459 323.771 38.0459C324.904 38.0459 325.749 37.4958 325.968 36.3765C326.071 35.8462 326.274 34.5818 325.763 34.3263M328.399 33.7992C328.131 34.8348 327.888 35.8577 327.871 36.9331C327.869 37.1109 328.003 38.0177 328.267 37.3724C328.778 36.1229 329.593 33.9 331.298 34.3264M345.005 33.5355C343.122 33.5783 341.633 33.9112 340.7 35.6736C339.41 38.1095 341.947 38.4043 343.951 39.3346M348.696 34.59C348.507 34.6593 348.333 34.7302 348.173 34.8039M348.173 34.8039C346.885 35.3983 346.504 36.1762 346.587 37.7531C346.618 38.3421 347.344 38.3233 347.788 38.2803C348.655 38.1964 349.717 37.8735 349.984 36.9038C350.369 35.5087 348.992 35.3413 348.173 34.8039ZM348.173 34.8039C348.074 34.739 347.983 34.6686 347.905 34.59M355.285 34.59C353.886 34.3991 352.881 34.5424 352.122 35.7029C351.528 36.6112 350.82 39.1423 352.62 39.1004C353.846 39.0719 354.762 38.3424 355.361 37.3748M355.361 37.3748C355.801 36.6651 356.069 35.8272 356.164 35.0439C356.366 33.3719 356.361 31.644 356.34 29.9624C356.337 29.752 356.484 29.2386 356.296 29.3327C356.078 29.4414 356.198 29.8095 356.164 30.0503C356.076 30.6689 356.009 31.2903 355.93 31.9101C355.78 33.081 355.073 35.5475 355.361 37.3748ZM355.361 37.3748C355.498 38.2397 355.857 38.9614 356.603 39.3347M358.976 37.2259C359.662 37.1024 361.418 37.0122 361.597 36.0251C361.711 35.401 360.515 34.94 360.147 34.7657C358.525 33.997 358.28 34.7472 357.833 36.2301C357.379 37.7405 358.101 39.0602 359.488 39.7154C360.373 40.1331 361.356 39.9977 362.139 40.389" stroke="url(#paint3_linear)" stroke-linecap="round" stroke-linejoin="round"/>
<defs>
<filter id="filter0_dd" x="0" y="8" width="272.156" height="50" filterUnits="userSpaceOnUse" color-interpolation-filters="sRGB">
<feFlood flood-opacity="0" result="BackgroundImageFix"/>
<feColorMatrix in="SourceAlpha" type="matrix" values="0 0 0 0 0 0 0 0 0 0 0 0 0 0 0 0 0 0 127 0"/>
<feOffset dy="1"/>
<feGaussianBlur stdDeviation="1.5"/>
<feColorMatrix type="matrix" values="0 0 0 0 0 0 0 0 0 0 0 0 0 0 0 0 0 0 0.1 0"/>
<feBlend mode="normal" in2="BackgroundImageFix" result="effect1_dropShadow"/>
<feColorMatrix in="SourceAlpha" type="matrix" values="0 0 0 0 0 0 0 0 0 0 0 0 0 0 0 0 0 0 127 0"/>
<feOffset dy="1"/>
<feGaussianBlur stdDeviation="1"/>
<feColorMatrix type="matrix" values="0 0 0 0 0 0 0 0 0 0 0 0 0 0 0 0 0 0 0.06 0"/>
<feBlend mode="normal" in2="effect1_dropShadow" result="effect2_dropShadow"/>
<feBlend mode="normal" in="SourceGraphic" in2="effect2_dropShadow" result="shape"/>
</filter>
<filter id="filter1_dd" x="209" y="99" width="64" height="75" filterUnits="userSpaceOnUse" color-interpolation-filters="sRGB">
<feFlood flood-opacity="0" result="BackgroundImageFix"/>
<feColorMatrix in="SourceAlpha" type="matrix" values="0 0 0 0 0 0 0 0 0 0 0 0 0 0 0 0 0 0 127 0"/>
<feOffset dy="1"/>
<feGaussianBlur stdDeviation="1.5"/>
<feColorMatrix type="matrix" values="0 0 0 0 0 0 0 0 0 0 0 0 0 0 0 0 0 0 0.1 0"/>
<feBlend mode="normal" in2="BackgroundImageFix" result="effect1_dropShadow"/>
<feColorMatrix in="SourceAlpha" type="matrix" values="0 0 0 0 0 0 0 0 0 0 0 0 0 0 0 0 0 0 127 0"/>
<feOffset dy="1"/>
<feGaussianBlur stdDeviation="1"/>
<feColorMatrix type="matrix" values="0 0 0 0 0 0 0 0 0 0 0 0 0 0 0 0 0 0 0.06 0"/>
<feBlend mode="normal" in2="effect1_dropShadow" result="effect2_dropShadow"/>
<feBlend mode="normal" in="SourceGraphic" in2="effect2_dropShadow" result="shape"/>
</filter>
<filter id="filter2_dd" x="137" y="99" width="64" height="75" filterUnits="userSpaceOnUse" color-interpolation-filters="sRGB">
<feFlood flood-opacity="0" result="BackgroundImageFix"/>
<feColorMatrix in="SourceAlpha" type="matrix" values="0 0 0 0 0 0 0 0 0 0 0 0 0 0 0 0 0 0 127 0"/>
<feOffset dy="1"/>
<feGaussianBlur stdDeviation="1.5"/>
<feColorMatrix type="matrix" values="0 0 0 0 0 0 0 0 0 0 0 0 0 0 0 0 0 0 0.1 0"/>
<feBlend mode="normal" in2="BackgroundImageFix" result="effect1_dropShadow"/>
<feColorMatrix in="SourceAlpha" type="matrix" values="0 0 0 0 0 0 0 0 0 0 0 0 0 0 0 0 0 0 127 0"/>
<feOffset dy="1"/>
<feGaussianBlur stdDeviation="1"/>
<feColorMatrix type="matrix" values="0 0 0 0 0 0 0 0 0 0 0 0 0 0 0 0 0 0 0.06 0"/>
<feBlend mode="normal" in2="effect1_dropShadow" result="effect2_dropShadow"/>
<feBlend mode="normal" in="SourceGraphic" in2="effect2_dropShadow" result="shape"/>
</filter>
<filter id="filter3_dd" x="0" y="101" width="129" height="39" filterUnits="userSpaceOnUse" color-interpolation-filters="sRGB">
<feFlood flood-opacity="0" result="BackgroundImageFix"/>
<feColorMatrix in="SourceAlpha" type="matrix" values="0 0 0 0 0 0 0 0 0 0 0 0 0 0 0 0 0 0 127 0"/>
<feOffset dy="1"/>
<feGaussianBlur stdDeviation="1.5"/>
<feColorMatrix type="matrix" values="0 0 0 0 0 0 0 0 0 0 0 0 0 0 0 0 0 0 0.1 0"/>
<feBlend mode="normal" in2="BackgroundImageFix" result="effect1_dropShadow"/>
<feColorMatrix in="SourceAlpha" type="matrix" values="0 0 0 0 0 0 0 0 0 0 0 0 0 0 0 0 0 0 127 0"/>
<feOffset dy="1"/>
<feGaussianBlur stdDeviation="1"/>
<feColorMatrix type="matrix" values="0 0 0 0 0 0 0 0 0 0 0 0 0 0 0 0 0 0 0.06 0"/>
<feBlend mode="normal" in2="effect1_dropShadow" result="effect2_dropShadow"/>
<feBlend mode="normal" in="SourceGraphic" in2="effect2_dropShadow" result="shape"/>
</filter>
<filter id="filter4_dd" x="61" y="145" width="64" height="29" filterUnits="userSpaceOnUse" color-interpolation-filters="sRGB">
<feFlood flood-opacity="0" result="BackgroundImageFix"/>
<feColorMatrix in="SourceAlpha" type="matrix" values="0 0 0 0 0 0 0 0 0 0 0 0 0 0 0 0 0 0 127 0"/>
<feOffset dy="1"/>
<feGaussianBlur stdDeviation="1.5"/>
<feColorMatrix type="matrix" values="0 0 0 0 0 0 0 0 0 0 0 0 0 0 0 0 0 0 0.1 0"/>
<feBlend mode="normal" in2="BackgroundImageFix" result="effect1_dropShadow"/>
<feColorMatrix in="SourceAlpha" type="matrix" values="0 0 0 0 0 0 0 0 0 0 0 0 0 0 0 0 0 0 127 0"/>
<feOffset dy="1"/>
<feGaussianBlur stdDeviation="1"/>
<feColorMatrix type="matrix" values="0 0 0 0 0 0 0 0 0 0 0 0 0 0 0 0 0 0 0.06 0"/>
<feBlend mode="normal" in2="effect1_dropShadow" result="effect2_dropShadow"/>
<feBlend mode="normal" in="SourceGraphic" in2="effect2_dropShadow" result="shape"/>
</filter>
<filter id="filter5_dd" x="0" y="145" width="64" height="29" filterUnits="userSpaceOnUse" color-interpolation-filters="sRGB">
<feFlood flood-opacity="0" result="BackgroundImageFix"/>
<feColorMatrix in="SourceAlpha" type="matrix" values="0 0 0 0 0 0 0 0 0 0 0 0 0 0 0 0 0 0 127 0"/>
<feOffset dy="1"/>
<feGaussianBlur stdDeviation="1.5"/>
<feColorMatrix type="matrix" values="0 0 0 0 0 0 0 0 0 0 0 0 0 0 0 0 0 0 0.1 0"/>
<feBlend mode="normal" in2="BackgroundImageFix" result="effect1_dropShadow"/>
<feColorMatrix in="SourceAlpha" type="matrix" values="0 0 0 0 0 0 0 0 0 0 0 0 0 0 0 0 0 0 127 0"/>
<feOffset dy="1"/>
<feGaussianBlur stdDeviation="1"/>
<feColorMatrix type="matrix" values="0 0 0 0 0 0 0 0 0 0 0 0 0 0 0 0 0 0 0.06 0"/>
<feBlend mode="normal" in2="effect1_dropShadow" result="effect2_dropShadow"/>
<feBlend mode="normal" in="SourceGraphic" in2="effect2_dropShadow" result="shape"/>
</filter>
<linearGradient id="paint0_linear" x1="295.156" y1="89" x2="240.393" y2="99.0429" gradientUnits="userSpaceOnUse">
<stop stop-color="#6D28D9"/>
<stop offset="1" stop-color="#4C1D95"/>
</linearGradient>
<linearGradient id="paint1_linear" x1="292" y1="66" x2="248.999" y2="56.7423" gradientUnits="userSpaceOnUse">
<stop stop-color="#6D28D9"/>
<stop offset="1" stop-color="#4C1D95"/>
</linearGradient>
<linearGradient id="paint2_linear" x1="302.027" y1="131" x2="319.695" y2="175.016" gradientUnits="userSpaceOnUse">
<stop stop-color="#6D28D9"/>
<stop offset="1" stop-color="#4C1D95"/>
</linearGradient>
<linearGradient id="paint3_linear" x1="309.156" y1="28" x2="325.425" y2="59.4068" gradientUnits="userSpaceOnUse">
<stop stop-color="#6D28D9"/>
<stop offset="1" stop-color="#4C1D95"/>
</linearGradient>
</defs>
</svg>
